<?xml version="1.0" encoding="UTF-8"?> <svg xmlns="http://www.w3.org/2000/svg" xmlns:xlink="http://www.w3.org/1999/xlink" width="57" height="62"><defs><path d="M11.542 6.193l-.178 1.65-.198 4.253c0 4.04.528 9.778 3.043 14.18 1.93 3.357 4.662 5.255 7.703 5.352-1.185-.906-2.596-2.413-3.348-4.754-.707-2.22-1.068-4.842-1.068-7.798a43.27 43.27 0 0 1 .894-8.552c.006-.024.007-.042.01-.05.123-.57.45-1.02.888-1.252-3.1-1.988-5.77-3.157-6.287-3.378-.31-.143-.476-.203-.48-.205l-.003-.003h-.004c-.11-.046-.223-.072-.333-.072-.352.01-.565.217-.64.627" id="A"></path><radialGradient cx="15.5831416%" cy="50.2083655%" fx="15.5831416%" fy="50.2083655%" r="108.481241%" gradientTransform="translate(0.155831,0.502084),scale(1.000000,0.412306),scale(1.000000,2.399994),translate(-0.155831,-0.502084)" id="B"><stop stop-color="#b81f3a" offset="0%"></stop><stop stop-color="#e21c41" offset="100%"></stop></radialGradient><path d="M38.357 10.394c-.001.006-.097.074-.27.227l-.777.665c-.47.416-1.414 1.29-2.518 2.504-1.753 1.95-4.07 5.016-5.173 8.57-.633 2.073-.952 3.868-.94 5.336-.013 1.1.164 2.03.52 2.766a3.11 3.11 0 0 0 1.576 1.564c.3.136.686.203 1.143.203h.025c2.12 0 5.66-1.773 6.883-5.713.66-2.12.99-4.622.99-7.44 0-3.496-.5-6.542-.73-7.688l-.132-.655c-.052-.2-.153-.448-.333-.448-.08 0-.164.035-.262.1" id="C"></path><radialGradient cx="49.9520513%" cy="49.999172%" fx="49.9520513%" fy="49.999172%" r="82.0041195%" gradientTransform="translate(0.499521,0.499992),scale(1.000000,0.507534),scale(1.000000,1.874988),translate(-0.499521,-0.499992)" id="D"><stop stop-color="#b81f3a" offset="0%"></stop><stop stop-color="#e21c41" offset="100%"></stop></radialGradient><path d="M19.584 10.738c-.013.04-.054.266-.132.65l-.303 1.802a42.26 42.26 0 0 0-.437 5.887c0 2.863.338 5.36 1 7.427 1.247 3.95 4.877 5.727 7.058 5.727h.02c.462 0 .865-.074 1.2-.217a2.67 2.67 0 0 0 .543-.296 4.31 4.31 0 0 1-.43-.732c-.426-.88-.638-1.956-.652-3.285.014-1.638.354-3.55 1.016-5.695l.195-.6.08-.23c-2.315-5.75-7.636-10.084-8.235-10.56-.19-.156-.288-.224-.3-.23-.106-.07-.2-.1-.274-.1-.187 0-.3.246-.36.454" id="E"></path><radialGradient cx="43.2155808%" cy="49.999172%" fx="43.2155808%" fy="49.999172%" r="91.4367037%" gradientTransform="translate(0.432156,0.499992),scale(1.000000,0.457073),scale(1.000000,2.142851),translate(-0.432156,-0.499992)" id="F"><stop stop-color="#b81f3a" offset="0%"></stop><stop stop-color="#e21c41" offset="100%"></stop></radialGradient><path d="M28.868 1.173c-.001.004-.1.16-.3.458L27.8 2.95c-.572 1.016-1.444 2.657-2.34 4.7l-1.666 4.313c1.725 1.72 4.034 4.408 5.573 7.663 1.188-2.553 2.995-5.095 5.37-7.565-1.62-4.92-3.9-8.93-4.807-10.433l-.29-.46c-.184-.275-.337-.298-.38-.298-.128 0-.26.102-.393.3" id="G"></path><radialGradient cx="50.223969%" cy="18.371916%" fx="50.223969%" fy="18.371916%" r="112.771262%" gradientTransform="translate(0.502240,0.183719),scale(1.000000,0.583474),scale(1.000000,1.625002),translate(-0.502240,-0.183719)" id="H"><stop stop-color="#b81f3a" offset="0%"></stop><stop stop-color="#e21c41" offset="100%"></stop></radialGradient><path d="M46.282 5.567c-.068.004-.164.02-.284.07H46v.003c-.004.001-.17.06-.475.2l-1.19.54-.174.08c-1.53.742-3.024 1.57-4.433 2.458l-.482.298c.436.218.77.68.897 1.25.001.014.006.032.01.056.207.975.88 4.473.88 8.552 0 2.94-.35 5.56-1.04 7.797-.742 2.35-2.117 3.85-3.277 4.754 3-.14 5.686-2.03 7.594-5.35 2.513-4.402 3.04-10.14 3.04-14.18 0-1.43-.063-2.865-.19-4.263-.095-1.032-.18-1.642-.18-1.647-.075-.394-.28-.6-.626-.62h-.06z" id="I"></path><radialGradient cx="85.2941542%" cy="49.9963632%" fx="85.2941542%" fy="49.9963632%" r="111.383641%" gradientTransform="translate(0.852942,0.499964),scale(1.000000,0.408023),scale(1.000000,2.249991),translate(-0.852942,-0.499964)" id="J"><stop stop-color="#b81f3a" offset="0%"></stop><stop stop-color="#e21c41" offset="100%"></stop></radialGradient><path d="M37.88 2.16h-.01c-.092.01-.187.05-.285.115l-.004.004-.003.004c-.007.003-.665.405-1.682 1.134l-2.552 1.976 2.12 5.016c1.307-1.028 2.74-2 4.367-2.99-.46-2.332-.986-4.068-1.197-4.712-.004-.022-.01-.04-.014-.05-.13-.333-.337-.505-.62-.505a.63.63 0 0 0-.117.011" id="K"></path><radialGradient cx="49.9995278%" cy="49.8985835%" fx="49.9995278%" fy="49.8985835%" r="57.2187809%" gradientTransform="translate(0.499995,0.498986),scale(1.000000,0.785220),scale(1.000000,1.200000),translate(-0.499995,-0.498986)" id="L"><stop stop-color="#b81f3a" offset="0%"></stop><stop stop-color="#e21c41" offset="100%"></stop></radialGradient><path d="M19.897 2.653a.51.51 0 0 0-.018.051c-.207.644-.734 2.38-1.196 4.712 1.627.98 3.06 1.962 4.367 2.99a50.52 50.52 0 0 1 2.12-5.016l-2.552-1.976-1.69-1.142c-.095-.065-.19-.106-.284-.115h-.008c-.042-.007-.084-.01-.12-.01-.283 0-.49.173-.617.505" id="M"></path><radialGradient cx="-17.5634635%" cy="-59.7327505%" fx="-17.5634635%" fy="-59.7327505%" r="170.401594%" gradientTransform="translate(-0.175635,-0.597328),scale(1.000000,0.785388),scale(1.000000,1.333333),translate(0.175635,0.597328)" id="N"><stop stop-color="#b81f3a" offset="0%"></stop><stop stop-color="#e21c41" offset="100%"></stop></radialGradient><path d="M4.437 13.092a1.15 1.15 0 0 0-.877.523 1.08 1.08 0 0 0-.178.646c.06.605.465 2.802 3.088 6.11l3.976-1.743c-.27-1.65-.432-3.448-.476-5.355l-3.654-.203-.48-.001-1.4.025" id="O"></path><radialGradient cx="-66.9418582%" cy="-25.7227739%" fx="-66.9418582%" fy="-25.7227739%" r="149.63886%" gradientTransform="translate(-0.669419,-0.257228),scale(1.000000,0.967386),translate(0.669419,0.257228)" id="P"><stop stop-color="#b81f3a" offset="0%"></stop><stop stop-color="#e21c41" offset="100%"></stop></radialGradient><path d="M52.2 13.07l-3.66.203c-.043 1.837-.202 3.637-.476 5.355a43.93 43.93 0 0 1 3.975 1.743c2.63-3.317 3.032-5.514 3.09-6.113.02-.205-.092-.516-.175-.64-.212-.313-.535-.502-.883-.525-.003 0-.523-.025-1.398-.025l-.475.001" id="Q"></path><radialGradient cx="166.999173%" cy="-26.2223986%" fx="166.999173%" fy="-26.2223986%" r="149.740888%" gradientTransform="translate(1.669992,-0.262224),scale(1.000000,0.967789),scale(1.000000,1.100000),translate(-1.669992,0.262224)" id="R"><stop stop-color="#b81f3a" offset="0%"></stop><stop stop-color="#e21c41" offset="100%"></stop></radialGradient><path d="M45.348 26.883c-1.168 2.054-2.633 3.612-4.353 4.643 12.49-.678 16.013-4.698 16.38-5.163l.004-.004c.123-.19.185-.398.185-.618a1.15 1.15 0 0 0-.441-.911c-.003 0-.146-.097-.41-.275l-.004-.003-.006-.003c-.196-.15-.482-.337-.842-.575l-.3-.196c-.898-.573-2.333-1.444-4.1-2.323-1.217-.618-2.432-1.153-3.615-1.603-.536 2.706-1.38 5.07-2.5 7.032" id="S"></path><radialGradient cx="79.9635641%" cy="56.791038%" fx="79.9635641%" fy="56.791038%" r="93.9902945%" gradientTransform="translate(0.799636,0.567910),scale(0.704577,1.000000),translate(-0.799636,-0.567910)" id="T"><stop stop-color="#b81f3a" offset="0%"></stop><stop stop-color="#e21c41" offset="100%"></stop></radialGradient><path d="M1.8 24.552l-.408.282c-.266.196-.434.545-.434.906 0 .22.06.427.185.612l.02.036c.026.026.052.058.084.096l.05.058c.085.095.284.303.6.562.525.45 1.472 1.127 2.99 1.814 3.146 1.426 7.508 2.328 12.645 2.616-1.704-1.025-3.198-2.62-4.357-4.653-1.118-1.963-1.957-4.326-2.496-7.032-4.2 1.593-7.603 3.812-8.875 4.7" id="U"></path><radialGradient cx="49.9972847%" cy="49.9990712%" fx="49.9972847%" fy="49.9990712%" r="61.3623766%" gradientTransform="translate(0.499973,0.499991),scale(0.705105,1.000000),translate(-0.499973,-0.499991)" id="V"><stop stop-color="#b81f3a" offset="0%"></stop><stop stop-color="#e21c41" offset="100%"></stop></radialGradient><path d="M43.264 32.767l-.67.093c-.626.088-1.39.128-2.403.128-.618 0-1.264-.013-1.943-.03l-.063-.001-2.116-.032c-1.533 0-3.51.063-5.253.547-.09.03-.152.122-.142.182s.114.075.207.075l.08-.003 1.99-.1c2.276 0 3.83.4 5.332.768 1.416.36 2.75.698 4.605.698 1.978 0 3.543-.423 4.188-1.13.22-.237.317-.494.3-.767-.05-.53-.22-.767-1.086-.767-.64 0-1.586.13-3.017.328" id="W"></path><radialGradient cx="49.8833684%" cy="41.2795405%" fx="49.8833684%" fy="41.2795405%" r="202.133833%" gradientTransform="translate(0.498834,0.412795),scale(0.159565,1.000000),translate(-0.498834,-0.412795)" id="X"><stop stop-color="#b81f3a" offset="0%"></stop><stop stop-color="#e21c41" offset="100%"></stop></radialGradient><path d="M11.142 33.205c-.026.27.07.53.28.762.632.698 2.243 1.135 4.202 1.135 1.854 0 3.19-.34 4.602-.698 1.504-.378 3.057-.77 5.335-.768l2.07.093c.092 0 .2-.018.21-.075s-.056-.152-.146-.182c-1.74-.484-3.72-.547-5.25-.547l-4.124.063c-1.01 0-1.776-.04-2.406-.128l-.682-.096-3.006-.326c-.862 0-1.03.238-1.084.767" id="Y"></path><radialGradient cx="49.9557032%" cy="41.0829399%" fx="49.9557032%" fy="41.0829399%" r="201.773571%" gradientTransform="translate(0.499557,0.410829),scale(0.159518,1.000000),translate(-0.499557,-0.410829)" id="Z"><stop stop-color="#b81f3a" offset="0%"></stop><stop stop-color="#e21c41" offset="100%"></stop></radialGradient></defs><g transform="translate(-.968 -.612)" fill-rule="evenodd"><path d="M16.2 48.147L7.074 37.425h-3.87V54.2h3.77V43.5l9.113 10.7h3.895V37.425h-3.77v10.723zm36.197-10.72l-2.5 10.745-2.627-10.745h-3.6L41 48.05l-2.428-10.624h-3.945l4.367 16.78h3.886L45.442 43.6l2.606 10.616h3.816l.038-.146L56.3 37.426h-3.9zM2.8 59.355v-.015c0-1.454 1.114-2.685 2.68-2.685.908 0 1.463.252 1.998.704l-.578.7c-.402-.342-.795-.557-1.458-.557-.956 0-1.685.838-1.685 1.83v.015c0 1.07.704 1.856 1.767 1.856a2.1 2.1 0 0 0 1.256-.395v-.97H5.45v-.794h2.215v2.182a3.32 3.32 0 0 1-2.17.8c-1.626 0-2.695-1.158-2.695-2.67m5.417.01v-.015a2.66 2.66 0 0 1 2.726-2.685c1.596 0 2.7 1.2 2.7 2.67v.015a2.66 2.66 0 0 1-2.726 2.687c-1.595 0-2.7-1.208-2.7-2.67m4.48 0v-.015c0-1-.735-1.846-1.77-1.846s-1.75.822-1.75 1.83v.015c0 1 .734 1.848 1.767 1.848s1.753-.824 1.753-1.832m.89-2.614h1l1.568 3.994 1.56-3.994h.988l-2.162 5.233h-.802zm5.74 0h3.853v.817h-2.94v1.352h2.606v.815H20.24v1.395h2.98v.814h-3.892zm4.78 0h2.317c.654 0 1.165.195 1.5.52.276.284.43.668.43 1.12v.015c0 .854-.5 1.366-1.24 1.574l1.406 1.966H27.44l-1.278-1.8h-1.143v1.8h-.913v-5.194zm2.25 2.575c.653 0 1.072-.34 1.072-.868v-.017c0-.555-.402-.86-1.08-.86h-1.33v1.745h1.336zm2.802-2.575H30l2.787 3.6v-3.6h.898v5.194h-.766l-2.866-3.695v3.695h-.897zm5.456 0h.972l1.583 2.457 1.58-2.457h.972v5.194h-.912v-3.725l-1.64 2.45h-.03l-1.625-2.435v3.7h-.9zm5.98 0h3.853v.817h-2.94v1.352h2.606v.815h-2.606v1.395h2.978v.814h-3.9zm4.8 0h.846l2.784 3.6v-3.6h.9v5.194h-.764l-2.866-3.695v3.695h-.9zm6.9.857h-1.648v-.846h4.218v.846h-1.648v4.346h-.922zm-31.265-5.728l2.218-2.656c1.536 1.266 3.143 2.072 5.094 2.072 1.536 0 2.463-.6 2.463-1.608v-.05c0-.95-.586-1.436-3.437-2.168-3.44-.878-5.654-1.827-5.654-5.213v-.047c0-3.094 2.485-5.138 5.97-5.138 2.485 0 4.607.778 6.337 2.166l-1.95 2.826c-1.512-1.05-3-1.682-4.437-1.682s-2.194.658-2.194 1.486v.05c0 1.12.73 1.486 3.68 2.24 3.46.9 5.4 2.143 5.4 5.113v.047c0 3.386-2.582 5.287-6.263 5.287-2.584 0-5.2-.9-7.238-2.727" fill="#233d7d"></path><path d="M29.288 33.517c-.072.01 1.073.263 1.073.506 5.96-.53 8.14 1.177 12.57 1.177 2.827 0 4.16-.634 4.384-1.94.354-2.82-4.015.097-12.582-.875-.16-.47.554-.412 1.66-.43 10.288-.17 12.997-.8 17.416-2.702 1.508-.685 2.12-1.25 2.71-1.747a5.06 5.06 0 0 0 .613-.587c.06-.07.106-.117.13-.153.013-.01.022-.02.022-.033h.015a1.33 1.33 0 0 0 .21-.726c0-.403 0-.808-.33-1.05 0 0-.143-.104-.413-.29-.788-.554-2.523-1.823-5.042-3.09-.01-.014-.024-.024.212-.394 3.16-4.015 3.453-6.36 3.487-6.727v-.046c0-.256-.07-.51-.2-.718a1.32 1.32 0 0 0-1.013-.601s-.707-.033-1.896-.02c-.99.01-2.322.07-4.29.23-.436-.348-.425-.705-.425-1.04a44.01 44.01 0 0 0-.2-4.305c-.093-1.06-.187-1.674-.187-1.674-.097-.52-.402-.76-.805-.774a1.05 1.05 0 0 0-.4.081s-.177.07-.494.207c-.897.392-2.674 1.327-5.126 2.298-.67-3.418-1.577-5.4-1.577-5.402-.178-.497-.52-.682-.93-.612-.118.013-.237.058-.368.14 0 .01-.658.403-1.696 1.155-.742.53-1.66 1.234-2.685 2.088l-.472.312c-.802-1.038-1.286-2.026-1.772-2.812L30.04 1.62l-.283-.462c-.2-.302-.388-.38-.47-.38L29.26.78c-.082 0-.27.08-.47.38 0 0-.093.164-.283.463-.19.3-.503.772-.846 1.344-.473.8-.958 1.77-1.758 2.8l-.472-.313c-1.025-.854-1.946-1.558-2.687-2.087-1.036-.75-1.697-1.144-1.697-1.155-.128-.082-.246-.128-.363-.14-.415-.068-.756.114-.93.612 0 .013-.91 1.984-1.58 5.4-2.45-.97-4.23-1.905-5.125-2.297l-.496-.21c-.142-.057-.27-.08-.4-.08-.4.01-.71.253-.802.774 0 0-.095.612-.188 1.672-.106 1.062-.2 2.563-.2 4.305 0 .337.01.694-.426 1.04-1.966-.16-3.298-.218-4.288-.23-1.19-.01-1.896.022-1.896.022-.412.022-.79.253-1.013.6-.142.207-.212.46-.212.715v.046c.035.37.33 2.713 3.487 6.727.237.37.224.38.213.394-2.524 1.27-4.256 2.538-5.044 3.093l-.413.288c-.33.243-.33.647-.33 1.052 0 .253.07.508.213.725h.01c0 .013.013.024.024.036.024.033.07.08.128.152a5.25 5.25 0 0 0 .615.587c.587.497 1.2 1.063 2.708 1.745 4.42 1.906 7.132 2.535 17.414 2.707 1.11.018 1.822-.043 1.664.426-8.57.973-12.94-1.944-12.584.877.223 1.305 1.554 1.94 4.38 1.94 4.43 0 6.6-1.71 12.574-1.18 0-.24 1.144-.494 1.072-.505l.026-.001z" fill="#fff"></path><mask id="a" fill="#fff"><use xlink:href="#A"></use></mask><path d="M11.542 6.193l-.178 1.65-.198 4.253c0 4.04.528 9.778 3.043 14.18 1.93 3.357 4.662 5.255 7.703 5.352-1.185-.906-2.596-2.413-3.348-4.754-.707-2.22-1.068-4.842-1.068-7.798a43.27 43.27 0 0 1 .894-8.552c.006-.024.007-.042.01-.05.123-.57.45-1.02.888-1.252-3.1-1.988-5.77-3.157-6.287-3.378-.31-.143-.476-.203-.48-.205l-.003-.003h-.004c-.11-.046-.223-.072-.333-.072-.352.01-.565.217-.64.627" fill="url(#B)" mask="url(#a)"></path><mask id="b" fill="#fff"><use xlink:href="#C"></use></mask><path d="M38.357 10.394c-.001.006-.097.074-.27.227l-.777.665c-.47.416-1.414 1.29-2.518 2.504-1.753 1.95-4.07 5.016-5.173 8.57-.633 2.073-.952 3.868-.94 5.336-.013 1.1.164 2.03.52 2.766a3.11 3.11 0 0 0 1.576 1.564c.3.136.686.203 1.143.203h.025c2.12 0 5.66-1.773 6.883-5.713.66-2.12.99-4.622.99-7.44 0-3.496-.5-6.542-.73-7.688l-.132-.655c-.052-.2-.153-.448-.333-.448-.08 0-.164.035-.262.1" fill="url(#D)" mask="url(#b)"></path><mask id="c" fill="#fff"><use xlink:href="#E"></use></mask><path d="M19.584 10.738c-.013.04-.054.266-.132.65l-.303 1.802a42.26 42.26 0 0 0-.437 5.887c0 2.863.338 5.36 1 7.427 1.247 3.95 4.877 5.727 7.058 5.727h.02c.462 0 .865-.074 1.2-.217a2.67 2.67 0 0 0 .543-.296 4.31 4.31 0 0 1-.43-.732c-.426-.88-.638-1.956-.652-3.285.014-1.638.354-3.55 1.016-5.695l.195-.6.08-.23c-2.315-5.75-7.636-10.084-8.235-10.56-.19-.156-.288-.224-.3-.23-.106-.07-.2-.1-.274-.1-.187 0-.3.246-.36.454" fill="url(#F)" mask="url(#c)"></path><mask id="d" fill="#fff"><use xlink:href="#G"></use></mask><path d="M28.868 1.173c-.001.004-.1.16-.3.458L27.8 2.95c-.572 1.016-1.444 2.657-2.34 4.7l-1.666 4.313c1.725 1.72 4.034 4.408 5.573 7.663 1.188-2.553 2.995-5.095 5.37-7.565-1.62-4.92-3.9-8.93-4.807-10.433l-.29-.46c-.184-.275-.337-.298-.38-.298-.128 0-.26.102-.393.3" fill="url(#H)" mask="url(#d)"></path><mask id="e" fill="#fff"><use xlink:href="#I"></use></mask><path d="M46.282 5.567c-.068.004-.164.02-.284.07H46v.003c-.004.001-.17.06-.475.2l-1.19.54-.174.08c-1.53.742-3.024 1.57-4.433 2.458l-.482.298c.436.218.77.68.897 1.25.001.014.006.032.01.056.207.975.88 4.473.88 8.552 0 2.94-.35 5.56-1.04 7.797-.742 2.35-2.117 3.85-3.277 4.754 3-.14 5.686-2.03 7.594-5.35 2.513-4.402 3.04-10.14 3.04-14.18 0-1.43-.063-2.865-.19-4.263-.095-1.032-.18-1.642-.18-1.647-.075-.394-.28-.6-.626-.62h-.06z" fill="url(#J)" mask="url(#e)"></path><mask id="f" fill="#fff"><use xlink:href="#K"></use></mask><path d="M37.88 2.16h-.01c-.092.01-.187.05-.285.115l-.004.004-.003.004c-.007.003-.665.405-1.682 1.134l-2.552 1.976 2.12 5.016c1.307-1.028 2.74-2 4.367-2.99-.46-2.332-.986-4.068-1.197-4.712-.004-.022-.01-.04-.014-.05-.13-.333-.337-.505-.62-.505a.63.63 0 0 0-.117.011" fill="url(#L)" mask="url(#f)"></path><mask id="g" fill="#fff"><use xlink:href="#M"></use></mask><path d="M19.897 2.653a.51.51 0 0 0-.018.051c-.207.644-.734 2.38-1.196 4.712 1.627.98 3.06 1.962 4.367 2.99a50.52 50.52 0 0 1 2.12-5.016l-2.552-1.976-1.69-1.142c-.095-.065-.19-.106-.284-.115h-.008c-.042-.007-.084-.01-.12-.01-.283 0-.49.173-.617.505" fill="url(#N)" mask="url(#g)"></path><mask id="h" fill="#fff"><use xlink:href="#O"></use></mask><path d="M4.437 13.092a1.15 1.15 0 0 0-.877.523 1.08 1.08 0 0 0-.178.646c.06.605.465 2.802 3.088 6.11l3.976-1.743c-.27-1.65-.432-3.448-.476-5.355l-3.654-.203-.48-.001-1.4.025" fill="url(#P)" mask="url(#h)"></path><mask id="i" fill="#fff"><use xlink:href="#Q"></use></mask><path d="M52.2 13.07l-3.66.203c-.043 1.837-.202 3.637-.476 5.355a43.93 43.93 0 0 1 3.975 1.743c2.63-3.317 3.032-5.514 3.09-6.113.02-.205-.092-.516-.175-.64-.212-.313-.535-.502-.883-.525-.003 0-.523-.025-1.398-.025l-.475.001" fill="url(#R)" mask="url(#i)"></path><mask id="j" fill="#fff"><use xlink:href="#S"></use></mask><path d="M45.348 26.883c-1.168 2.054-2.633 3.612-4.353 4.643 12.49-.678 16.013-4.698 16.38-5.163l.004-.004c.123-.19.185-.398.185-.618a1.15 1.15 0 0 0-.441-.911c-.003 0-.146-.097-.41-.275l-.004-.003-.006-.003c-.196-.15-.482-.337-.842-.575l-.3-.196c-.898-.573-2.333-1.444-4.1-2.323-1.217-.618-2.432-1.153-3.615-1.603-.536 2.706-1.38 5.07-2.5 7.032" fill="url(#T)" mask="url(#j)"></path><mask id="k" fill="#fff"><use xlink:href="#U"></use></mask><path d="M1.8 24.552l-.408.282c-.266.196-.434.545-.434.906 0 .22.06.427.185.612l.02.036c.026.026.052.058.084.096l.05.058c.085.095.284.303.6.562.525.45 1.472 1.127 2.99 1.814 3.146 1.426 7.508 2.328 12.645 2.616-1.704-1.025-3.198-2.62-4.357-4.653-1.118-1.963-1.957-4.326-2.496-7.032-4.2 1.593-7.603 3.812-8.875 4.7" fill="url(#V)" mask="url(#k)"></path><mask id="l" fill="#fff"><use xlink:href="#W"></use></mask><path d="M43.264 32.767l-.67.093c-.626.088-1.39.128-2.403.128-.618 0-1.264-.013-1.943-.03l-.063-.001-2.116-.032c-1.533 0-3.51.063-5.253.547-.09.03-.152.122-.142.182s.114.075.207.075l.08-.003 1.99-.1c2.276 0 3.83.4 5.332.768 1.416.36 2.75.698 4.605.698 1.978 0 3.543-.423 4.188-1.13.22-.237.317-.494.3-.767-.05-.53-.22-.767-1.086-.767-.64 0-1.586.13-3.017.328" fill="url(#X)" mask="url(#l)"></path><mask id="m" fill="#fff"><use xlink:href="#Y"></use></mask><path d="M11.142 33.205c-.026.27.07.53.28.762.632.698 2.243 1.135 4.202 1.135 1.854 0 3.19-.34 4.602-.698 1.504-.378 3.057-.77 5.335-.768l2.07.093c.092 0 .2-.018.21-.075s-.056-.152-.146-.182c-1.74-.484-3.72-.547-5.25-.547l-4.124.063c-1.01 0-1.776-.04-2.406-.128l-.682-.096-3.006-.326c-.862 0-1.03.238-1.084.767" fill="url(#Z)" mask="url(#m)"></path></g></svg> 