<?xml version="1.0" encoding="UTF-8"?>
<svg width="16px" height="22px" viewBox="0 0 16 22" version="1.1" xmlns="http://www.w3.org/2000/svg" xmlns:xlink="http://www.w3.org/1999/xlink">
    <title>98F5D3FB-B88A-400C-B025-7D547F0F4C4F</title>
    <defs>
        <filter id="filter-1">
            <feColorMatrix in="SourceGraphic" type="matrix" values="0 0 0 0 1.000000 0 0 0 0 1.000000 0 0 0 0 1.000000 0 0 0 1.000000 0"></feColorMatrix>
        </filter>
    </defs>
    <g id="web" stroke="none" stroke-width="1" fill="none" fill-rule="evenodd">
        <g id="placeholder" transform="translate(-1225.000000, -40.000000)" filter="url(#filter-1)">
            <g transform="translate(1226.000000, 41.000000)">
                <path d="M6.97146214,9.8549265 C6.21187674,9.8549265 5.45213873,9.56577133 4.87398101,8.98746104 C3.71736035,7.830993 3.71736035,5.94911937 4.87398101,4.79249875 C5.43413327,4.23219388 6.17907021,3.92365997 6.97146214,3.92365997 C7.76385407,3.92365997 8.5086384,4.23234646 9.06894327,4.79249875 C10.2255639,5.94911937 10.2255639,7.830993 9.06894327,8.98746104 C8.49063298,9.56577133 7.73104754,9.8549265 6.97146214,9.8549265 Z M6.97146214,5.09782827 C6.51232344,5.09782827 6.05318473,5.27254207 5.70360453,5.62212227 C5.00444413,6.32128267 5.00444413,7.4588297 5.70360453,8.1579901 C6.04219836,8.49658394 6.49248692,8.68304703 6.97146214,8.68304703 C7.45043737,8.68304703 7.90072592,8.49658394 8.23931975,8.1579901 C8.93848015,7.4588297 8.93848015,6.32128267 8.23931975,5.62212227 C7.88973955,5.27254207 7.43060085,5.09782827 6.97146214,5.09782827 Z" id="Shape" stroke="#979797" stroke-width="0.3" fill="#FFFFFF" fill-rule="nonzero"></path>
                <path d="M6.97832861,20.0000763 L6.52468309,19.4672373 C6.25917915,19.1551939 0.0195313245,11.7699119 0.0195313245,6.95193082 C0.0195313245,3.11860322 3.13813455,0 6.97146214,0 C10.8047897,0 13.923393,3.11860322 13.923393,6.95193082 C13.923393,11.532942 7.68923832,19.138867 7.42388695,19.4603709 L6.97832861,20.0000763 Z M6.97146214,1.17325276 C3.78510967,1.17325276 1.19278408,3.76557835 1.19278408,6.95193082 C1.19278408,8.74270913 2.26059823,11.3342718 4.28086961,14.4466188 C5.32930502,16.0617678 6.38506463,17.4295709 6.96505344,18.1534506 C7.54595773,17.4097344 8.61178824,15.9969177 9.66678492,14.3510985 C11.6840045,11.2045716 12.7501402,8.64581544 12.7501402,6.95193082 C12.7501402,3.76557835 10.1578146,1.17325276 6.97146214,1.17325276 Z" id="Shape" stroke="#979797" stroke-width="0.3" fill="#FFFFFF" fill-rule="nonzero"></path>
            </g>
        </g>
    </g>
</svg>