<?xml version="1.0" encoding="UTF-8"?>
<svg width="281px" height="37px" viewBox="0 0 281 37" version="1.1" xmlns="http://www.w3.org/2000/svg" xmlns:xlink="http://www.w3.org/1999/xlink">
    <title>7F40DF30-1E32-4091-962D-CAFD172A0BA3</title>
    <g id="web" stroke="none" stroke-width="1" fill="none" fill-rule="evenodd">
        <g id="home-v3" transform="translate(-151.000000, -32.000000)" fill="#FFFFFF">
            <g id="Group-3" transform="translate(151.000000, 32.000000)">
                <g id="Group-5">
                    <path d="M18.4395425,1.08823529 C8.87201961,1.08823529 1.08823529,8.87201961 1.08823529,18.4395425 C1.08823529,28.0070654 8.87201961,35.7908497 18.4395425,35.7908497 C28.0070654,35.7908497 35.7908497,28.0070654 35.7908497,18.4395425 C35.7908497,8.87201961 28.0070654,1.08823529 18.4395425,1.08823529 M18.4395425,36.879085 C8.27203922,36.879085 0,28.6070458 0,18.4395425 C0,8.27203922 8.27203922,0 18.4395425,0 C28.6070458,0 36.879085,8.27203922 36.879085,18.4395425 C36.879085,28.6070458 28.6070458,36.879085 18.4395425,36.879085" id="Fill-1"></path>
                    <path d="M26.3735275,29.6315105 C25.6731876,29.6315105 25.1053706,29.0636935 25.1053706,28.3631118 C25.1053706,27.6627719 25.6731876,27.0949549 26.3735275,27.0949549 C27.0738673,27.0949549 27.6419261,27.6627719 27.6419261,28.3631118 C27.6419261,29.0636935 27.0738673,29.6315105 26.3735275,29.6315105 M12.5913902,10.6093993 C11.8908085,10.6093993 11.3229915,10.0415824 11.3229915,9.34124248 C11.3229915,8.64066078 11.8908085,8.07308562 12.5913902,8.07308562 C13.2917301,8.07308562 13.8595471,8.64066078 13.8595471,9.34124248 C13.8595471,10.0415824 13.2917301,10.6093993 12.5913902,10.6093993 M13.8595471,28.3631118 C13.8595471,29.0636935 13.2917301,29.6315105 12.5913902,29.6315105 C11.8908085,29.6315105 11.3229915,29.0636935 11.3229915,28.3631118 C11.3229915,27.6627719 11.8908085,27.0949549 12.5913902,27.0949549 C13.2917301,27.0949549 13.8595471,27.6627719 13.8595471,28.3631118 M25.7005144,8.28807255 C26.2821157,7.89775882 27.0697562,8.05301373 27.4603118,8.6343732 C27.8506255,9.21597451 27.6956124,10.0038569 27.1140111,10.3941706 C26.5324098,10.7844843 25.7445275,10.6294712 25.3542137,10.0481118 C24.9639,9.46651046 25.1189131,8.67838627 25.7005144,8.28807255 M26.3735275,26.5331837 C26.255998,26.5331837 26.1413706,26.545517 26.0298869,26.5665562 L18.5638673,17.8976739 L25.3701745,10.8705758 C25.6581941,11.0601706 26.002802,11.1711706 26.3735275,11.1711706 C27.3841353,11.1711706 28.2034556,10.3518503 28.2034556,9.34124248 C28.2034556,8.33039281 27.3841353,7.51131438 26.3735275,7.51131438 C25.3629196,7.51131438 24.5435993,8.33039281 24.5435993,9.34124248 C24.5435993,9.51487647 24.5694752,9.68222288 24.6146974,9.84134706 L13.1732333,21.6233078 L13.1732333,11.0751641 C13.8982399,10.8316412 14.4213183,10.1482294 14.4213183,9.34124248 C14.4213183,8.33039281 13.601998,7.51131438 12.5913902,7.51131438 C11.5807824,7.51131438 10.7612203,8.33039281 10.7612203,9.34124248 C10.7612203,10.0418242 11.1554033,10.6500268 11.7338608,10.9573928 L11.7338608,26.7469614 C11.1554033,27.0545693 10.7612203,27.6625301 10.7612203,28.3631118 C10.7612203,29.3739614 11.5807824,30.1930399 12.5913902,30.1930399 C13.601998,30.1930399 14.4213183,29.3739614 14.4213183,28.3631118 C14.4213183,27.5561248 13.8982399,26.8727131 13.1732333,26.629432 L13.1732333,23.485883 L17.6040438,18.9421379 L24.8908673,27.2937392 C24.6732203,27.5948176 24.5435993,27.9636085 24.5435993,28.3631118 C24.5435993,29.3739614 25.3629196,30.1930399 26.3735275,30.1930399 C27.3841353,30.1930399 28.2034556,29.3739614 28.2034556,28.3631118 C28.2034556,27.3525039 27.3841353,26.5331837 26.3735275,26.5331837" id="Fill-3"></path>
                </g>
                <path d="M53.7,28 L53.7,23.4 L57.275,19.775 L64.425,28 L66.625,28 L58.525,18.425 L66.1,10.5 L63.975,10.5 L53.7,21.075 L53.7,10.5 L51.85,10.5 L51.85,28 L53.7,28 Z M81.275,28 L81.275,26.4 L71.475,26.4 L71.475,10.5 L69.625,10.5 L69.625,28 L81.275,28 Z M86.2,28 L86.2,10.5 L84.35,10.5 L84.35,28 L86.2,28 Z M104.275,28 L104.275,26.4 L93.75,26.4 L93.75,19.9 L102.8,19.9 L102.8,18.325 L93.75,18.325 L93.75,12.1 L103.9,12.1 L103.9,10.5 L91.9,10.5 L91.9,28 L104.275,28 Z M110.475,28 L110.475,22.45 L115.175,22.45 C115.658333,22.45 116.125,22.425 116.575,22.375 L116.575,22.375 L120.575,28 L122.6,28 L118.325,22 C119.608333,21.5833333 120.595833,20.9041667 121.2875,19.9625 C121.979167,19.0208333 122.325,17.8666667 122.325,16.5 C122.325,14.6333333 121.691667,13.1666667 120.425,12.1 C119.158333,11.0333333 117.408333,10.5 115.175,10.5 L115.175,10.5 L108.625,10.5 L108.625,28 L110.475,28 Z M115.125,20.875 L110.475,20.875 L110.475,12.1 L115.125,12.1 C116.858333,12.1 118.183333,12.4791667 119.1,13.2375 C120.016667,13.9958333 120.475,15.0833333 120.475,16.5 C120.475,17.8833333 120.016667,18.9583333 119.1,19.725 C118.183333,20.4916667 116.858333,20.875 115.125,20.875 L115.125,20.875 Z M128.55,28 L128.55,20.575 L137.6,20.575 L137.6,18.975 L128.55,18.975 L128.55,12.1 L138.7,12.1 L138.7,10.5 L126.7,10.5 L126.7,28 L128.55,28 Z M154.9,28 L154.9,26.4 L144.375,26.4 L144.375,19.9 L153.425,19.9 L153.425,18.325 L144.375,18.325 L144.375,12.1 L154.525,12.1 L154.525,10.5 L142.525,10.5 L142.525,28 L154.9,28 Z M170.9,28 L170.9,26.4 L161.1,26.4 L161.1,10.5 L159.25,10.5 L159.25,28 L170.9,28 Z M181.1,28 C182.95,28 184.583333,27.6291667 186,26.8875 C187.416667,26.1458333 188.516667,25.1125 189.3,23.7875 C190.083333,22.4625 190.475,20.95 190.475,19.25 C190.475,17.55 190.083333,16.0375 189.3,14.7125 C188.516667,13.3875 187.416667,12.3541667 186,11.6125 C184.583333,10.8708333 182.95,10.5 181.1,10.5 L181.1,10.5 L173.975,10.5 L173.975,28 L181.1,28 Z M181,26.4 L175.825,26.4 L175.825,12.1 L181,12.1 C182.533333,12.1 183.875,12.4041667 185.025,13.0125 C186.175,13.6208333 187.066667,14.4625 187.7,15.5375 C188.333333,16.6125 188.65,17.85 188.65,19.25 C188.65,20.65 188.333333,21.8875 187.7,22.9625 C187.066667,24.0375 186.175,24.8791667 185.025,25.4875 C183.875,26.0958333 182.533333,26.4 181,26.4 L181,26.4 Z M212.825,28 L212.825,26.4 L203.025,26.4 L203.025,10.5 L201.175,10.5 L201.175,28 L212.825,28 Z M215.125,28 L217.225,23.325 L226.975,23.325 L229.075,28 L231.025,28 L223.025,10.5 L221.2,10.5 L213.2,28 L215.125,28 Z M226.3,21.825 L217.9,21.825 L222.1,12.425 L226.3,21.825 Z M237.425,28 L237.425,12.1 L243.575,12.1 L243.575,10.5 L229.425,10.5 L229.425,12.1 L235.575,12.1 L235.575,28 L237.425,28 Z M243.9,28 L246,23.325 L255.75,23.325 L257.85,28 L259.8,28 L251.8,10.5 L249.975,10.5 L241.975,28 L243.9,28 Z M255.075,21.825 L246.675,21.825 L250.875,12.425 L255.075,21.825 Z M264.475,28 L264.475,14.075 L271.35,25.775 L272.225,25.775 L279.1,14 L279.1,28 L280.875,28 L280.875,10.5 L279.35,10.5 L271.825,23.475 L264.225,10.5 L262.7,10.5 L262.7,28 L264.475,28 Z" id="KLIERFELDLATAM" fill-rule="nonzero"></path>
            </g>
        </g>
    </g>
</svg>