<?xml version="1.0" encoding="UTF-8"?>
<svg width="73px" height="55px" viewBox="0 0 73 55" version="1.1" xmlns="http://www.w3.org/2000/svg" xmlns:xlink="http://www.w3.org/1999/xlink">
    <title>A72BDD32-8FFD-4400-B892-5828F1863730</title>
    <g id="web" stroke="none" stroke-width="1" fill="none" fill-rule="evenodd">
        <g id="home-v4" transform="translate(-310.000000, -2137.000000)" fill-rule="nonzero">
            <g id="Recurso-map" transform="translate(310.000000, 2137.000000)">
                <g id="Group" transform="translate(6.780822, 12.054795)">
                    <polygon id="Path" fill="#868686" points="23.0321918 5.41712329 23.0321918 6.02739726 20.6287671 4.67123288 20.6287671 4.0609589"></polygon>
                    <polygon id="Path" fill="#888888" points="33.8212329 2.22260274 33.8212329 2.83287671 23.0321918 6.02739726 23.0321918 5.41712329"></polygon>
                    <polygon id="Path" fill="#6A6966" points="22.9945205 5.43219178 22.9945205 6.04246575 16.0856164 13.9232877 16.0856164 13.3130137"></polygon>
                    <polygon id="Path" fill="#74736F" points="16.0931507 13.3205479 16.0856164 13.9232877 13.719863 12.559589 13.719863 11.9493151"></polygon>
                    <polygon id="Path" fill="#555552" points="22.9945205 5.43219178 22.9945205 6.04246575 16.0856164 13.9232877 16.0931507 13.3205479"></polygon>
                    <polygon id="Path" fill="#868686" points="60.1609589 17.4267123 60.1609589 18.0369863 33.8212329 2.83287671 33.8212329 2.22260274"></polygon>
                    <polygon id="Path" fill="#868686" points="2.49383562 17.3438356 2.49383562 17.9541096 0.128082192 16.590411 0.128082192 15.980137"></polygon>
                    <polygon id="Path" fill="#888888" points="16.0931507 13.3205479 16.0856164 13.9232877 2.49383562 17.9541096 2.49383562 17.3438356"></polygon>
                    <polygon id="Path" fill="#74736F" points="42.4253425 28.5171233 42.4178082 29.1273973 16.0856164 13.9232877 16.0931507 13.3205479"></polygon>
                    <polygon id="Path" fill="#1D555D" points="42.4253425 28.5171233 42.4178082 29.1273973 16.0856164 13.9232877 16.0931507 13.3205479"></polygon>
                    <polygon id="Path" fill="#246973" points="49.3267123 20.6287671 49.3267123 21.2390411 22.9945205 6.04246575 22.9945205 5.43219178"></polygon>
                    <polygon id="Path" fill="#3FB6C6" points="49.3267123 20.6287671 42.4253425 28.5171233 16.0931507 13.3205479 22.9945205 5.43219178"></polygon>
                    <polygon id="Path" fill="#1B4E55" points="49.3267123 20.6287671 49.3267123 21.2390411 42.4178082 29.1273973 42.4253425 28.5171233"></polygon>
                    <polygon id="Path" fill="#74736F" points="44.7910959 29.8883562 44.7835616 30.4986301 42.4178082 29.1273973 42.4253425 28.5171233"></polygon>
                    <polygon id="Path" fill="#256B75" points="42.4253425 28.5171233 42.4178082 29.1273973 28.8260274 33.1582192 28.8260274 32.5479452"></polygon>
                    <polygon id="Path" fill="#E6E6E6" points="42.4253425 28.5171233 44.7910959 29.8883562 31.1917808 33.9116438 28.8260274 32.5479452"></polygon>
                    <polygon id="Path" fill="#3FB6C6" points="42.4253425 28.5171233 28.8260274 32.5479452 2.49383562 17.3438356 16.0931507 13.3205479"></polygon>
                    <polygon id="Path" fill="#E6E6E6" points="0.128082192 15.980137 13.719863 11.9493151 16.0931507 13.3205479 2.49383562 17.3438356"></polygon>
                    <polygon id="Path" fill="#256B75" points="60.1609589 17.4267123 60.1609589 18.0369863 49.3267123 21.2390411 49.3267123 20.6287671"></polygon>
                    <polygon id="Path" fill="#3FB6C6" points="60.1609589 17.4267123 49.3267123 20.6287671 22.9945205 5.43219178 33.8212329 2.22260274"></polygon>
                    <polygon id="Path" fill="#E6E6E6" points="65.2917808 17.9691781 51.6924658 22 49.3267123 20.6287671 60.1609589 17.4267123 33.8212329 2.22260274 23.0321918 5.41712329 20.6287671 4.0609589 34.2280822 0.0376712329"></polygon>
                    <polygon id="Path" fill="#868686" points="51.6924658 22 51.6924658 22.610274 49.3267123 21.2390411 49.3267123 20.6287671"></polygon>
                    <polygon id="Path" fill="#888888" points="65.2917808 17.9691781 65.2917808 18.5794521 51.6924658 22.610274 51.6924658 22"></polygon>
                    <polygon id="Path" fill="#6A6966" points="51.6924658 22 51.6924658 22.610274 44.7835616 30.4986301 44.7910959 29.8883562"></polygon>
                    <polygon id="Path" fill="#C7C5C0" points="51.6924658 22 44.7910959 29.8883562 42.4253425 28.5171233 16.0931507 13.3205479 13.719863 11.9493151 20.6287671 4.0609589 22.9945205 5.43219178 16.0856164 13.3130137 42.4253425 28.5171233 49.3267123 20.6287671"></polygon>
                    <polygon id="Path" fill="#246973" points="28.8260274 32.5479452 28.8260274 33.1582192 2.49383562 17.9541096 2.49383562 17.3438356"></polygon>
                    <polygon id="Path" fill="#888888" points="44.7910959 29.8883562 44.7835616 30.4986301 31.1917808 34.5219178 31.1917808 33.9116438"></polygon>
                    <polygon id="Path" fill="#868686" points="31.1917808 33.9116438 31.1917808 34.5219178 28.8260274 33.1582192 28.8260274 32.5479452"></polygon>
                </g>
                <g id="Group" transform="translate(0.000000, 27.876712)">
                    <polygon id="Path" fill="#6A6A6A" points="9.27465753 1.52191781 9.27465753 2.13219178 3.76712329 8.41575342 3.76712329 7.80547945"></polygon>
                    <polygon id="Path" fill="#3FB6C6" points="35.6068493 16.7260274 30.1068493 23.009589 3.76712329 7.80547945 9.27465753 1.52191781"></polygon>
                    <polygon id="Path" fill="#1B4E55" points="35.6068493 16.7260274 35.6068493 17.3363014 30.1068493 23.619863 30.1068493 23.009589"></polygon>
                    <polygon id="Path" fill="#1D555D" points="30.1068493 23.009589 30.1068493 23.619863 3.76712329 8.41575342 3.76712329 7.80547945"></polygon>
                    <polygon id="Path" fill="#747474" points="31.0636986 25.9780822 31.0636986 26.5883562 0 8.65684932 0 8.04657534"></polygon>
                    <polygon id="Path" fill="#6A6A6A" points="37.9726027 18.089726 37.9726027 18.7 31.0636986 26.5883562 31.0636986 25.9780822"></polygon>
                    <polygon id="Path" fill="#C8C8C8" points="37.9726027 18.089726 31.0636986 25.9780822 0 8.04657534 6.90890411 0.158219178 9.27465753 1.52191781 3.76712329 7.80547945 30.1068493 23.009589 35.6068493 16.7260274"></polygon>
                </g>
                <path d="M25.390411,37.3623288 C25.390411,37.3623288 25.3150685,37.4452055 25.3,37.460274 L25.3527397,37.460274 C25.4280822,37.4226027 25.4506849,37.3849315 25.390411,37.3623288 Z" id="Path" fill="#FFFFFF"></path>
                <path d="M24.1472603,37.8294521 C24.1472603,37.8294521 24.1472603,37.8294521 24.1472603,37.8294521 C24.1472603,37.8294521 24.1547945,37.8219178 24.1472603,37.8294521 Z" id="Path" fill="#FFFFFF"></path>
                <path d="M23.4842466,38.8315068 L23.6424658,38.8315068 L23.5972603,38.8315068 C23.5520548,38.7561644 23.5143836,38.7863014 23.4842466,38.8315068 Z" id="Path" fill="#FFFFFF"></path>
                <path d="M21.0431507,32.7513699 C21.0431507,32.7513699 21.0958904,32.7061644 21.0883562,32.6835616 C21.0808219,32.6609589 20.9226027,32.6835616 20.9226027,32.6835616 C20.4027397,33.0226027 20.4705479,32.3445205 19.9130137,32.4424658 C19.9130137,32.4424658 19.8075342,33.0150685 19.6342466,32.8794521 C19.6342466,32.8794521 19.340411,32.7815068 19.3554795,32.6986301 C19.2897643,32.727085 19.2216998,32.7497731 19.1520548,32.7664384 C19.219863,32.6232877 18.6924658,32.8191781 18.609589,32.9020548 C18.2027397,33.0828767 19.0089041,33.6027397 18.8582192,33.8513699 C18.7075342,34.1 18.9712329,34.2732877 18.8582192,34.4616438 C18.7452055,34.65 18.3232877,34.1527397 18.3684932,34.160274 C17.9683516,34.2289166 17.5784995,34.3478975 17.2082192,34.5143836 C17.2082192,34.5143836 17.110274,34.3335616 17.080137,34.3335616 C17.05,34.3335616 16.9972603,34.4013699 16.9294521,34.4089041 C16.8616438,34.4164384 17.0726027,33.5650685 17.1630137,33.580137 C17.0575342,33.580137 16.9746575,33.6856164 16.8616438,33.6705479 C17.4041096,33.4972603 17.3287671,33.2636986 17.5623288,32.9849315 C17.5623288,33.1205479 17.5623288,33.2561644 17.5246575,33.3616438 C17.5849315,33.3164384 18.1726027,33.0678082 18.1876712,32.9547945 C18.1876712,33.0226027 17.690411,32.8869863 17.6226027,32.9547945 C17.5547945,33.0226027 17.6979452,33.0226027 17.6678082,33.0452055 C17.6376712,33.0678082 17.6678082,32.969863 17.569863,33 C17.4719178,33.030137 17.569863,33 17.5321918,33 C17.4945205,33 17.7431507,33 17.8410959,32.9472603 C17.9390411,32.8945205 17.7205479,32.9472603 17.7130137,32.9472603 C17.7054795,32.9472603 18.1726027,32.5027397 17.7883562,32.4273973 C17.7883562,32.4273973 18.3082192,32.1938356 18.0671233,32.1260274 C18.1726027,32.1260274 18.3534247,32.1260274 18.3986301,32.1260274 C18.4438356,32.1260274 18.2479452,32.1938356 18.3458904,32.2390411 C18.4438356,32.2842466 18.5267123,32.1561644 18.5417808,32.1410959 C18.5568493,32.1260274 18.5417808,32.2390411 18.5417808,32.2465753 C18.7075342,32.3143836 18.5869863,32.1410959 18.5869863,32.1335616 C18.5869863,32.1260274 18.6246575,32.1335616 18.669863,32.1335616 C18.7828767,32.2465753 18.5869863,32.4047945 18.7150685,32.480137 C18.669863,32.5705479 18.1650685,32.7287671 18.3082192,32.8493151 C18.1575342,32.7212329 19.5136986,32.5931507 19.6719178,32.5027397 C19.830137,32.4123288 19.3027397,32.4424658 19.280137,32.4349315 C19.4006849,32.3671233 19.6794521,32.4349315 19.769863,32.3671233 C19.860274,32.2993151 19.6116438,32.2767123 19.6417808,32.2390411 L19.6417808,32.2390411 C19.6869863,32.2390411 19.7020548,32.2390411 19.7472603,32.2390411 C19.7924658,32.2390411 19.6116438,32.1486301 19.6267123,32.1335616 C19.6417808,32.1184932 19.2575342,32.1335616 19.2650685,32.1335616 C19.2726027,32.1335616 19.8527397,31.9150685 19.8376712,31.6589041 L19.0842466,31.809589 C19.0315068,31.809589 19.25,31.6513699 19.219863,31.6363014 C19.1747912,31.6313851 19.1293184,31.6313851 19.0842466,31.6363014 L19.0842466,31.6363014 C19.0842466,31.6363014 19.1746575,31.6363014 19.159589,31.5835616 C19.1445205,31.5308219 19.0089041,31.5835616 18.9938356,31.6287671 C18.9787671,31.6739726 18.5041096,31.5910959 18.5417808,31.7342466 C18.4313905,31.7272133 18.3206643,31.7272133 18.210274,31.7342466 C18.0746575,31.6287671 17.7657534,31.8321918 17.8335616,31.8623288 C17.9013699,31.8924658 18.0821918,31.6438356 18.2027397,31.6438356 C18.1247258,31.7316924 18.0389947,31.8123805 17.9465753,31.8849315 C17.9465753,31.8849315 17.9465753,31.7568493 17.8863014,31.7191781 C17.8260274,31.6815068 17.3815068,32.0958904 17.4794521,32.1787671 C17.5773973,32.2616438 17.5849315,32.1787671 17.6075342,32.1787671 L17.6075342,32.1787671 C17.3287671,32.2917808 17.5623288,31.8623288 17.6075342,31.8623288 C17.4719178,31.8246575 17.0123288,32.3520548 17.1856164,32.45 C17.2598152,32.4092411 17.338101,32.3764115 17.4191781,32.3520548 C17.4191781,32.3520548 17.1630137,32.4650685 17.2232877,32.4876712 C17.2835616,32.510274 17.8410959,32.2465753 17.8410959,32.2465753 L17.8410959,32.2917808 C17.7759354,32.442631 17.6840477,32.5804627 17.569863,32.6986301 C17.569863,32.6986301 17.569863,32.6534247 17.569863,32.6534247 C17.558135,32.7185856 17.5378691,32.7819165 17.509589,32.8417808 L17.4041096,32.8417808 C17.4041096,32.8417808 17.4643836,32.5705479 17.2760274,32.6760274 L17.2760274,32.7212329 C17.1931507,32.6684932 17.05,32.8041096 17.0349315,32.8041096 C17.019863,32.8041096 17.1178082,32.5630137 16.8465753,32.6157534 C16.9219178,32.540411 17.2835616,32.2239726 17.2383562,32.1335616 C17.2383562,32.1335616 16.4849315,32.7664384 16.6280822,32.9623288 C16.6732877,33.0376712 16.8315068,32.9246575 16.8541096,32.9171233 C16.8767123,32.909589 16.8917808,32.9171233 16.9068493,32.9171233 C16.9219178,32.9171233 16.7109589,33.2109589 16.8013699,33.2561644 L16.8013699,33.2561644 L16.7561644,33.2561644 C16.7561644,33.2561644 16.7561644,33.1356164 16.7561644,33.1356164 C16.7561644,33.1356164 16.6506849,33.1883562 16.6130137,33.1883562 C16.6838163,33.1145895 16.7469269,33.0338079 16.8013699,32.9472603 C16.7636986,32.8794521 16.2739726,33.2034247 16.3945205,33.2486301 C16.5150685,33.2938356 16.4849315,33.1883562 16.530137,33.1883562 C16.4773973,33.3541096 16.3493151,33.5047945 15.9349315,33.6178082 C16.0630137,33.4821918 15.4452055,33.7082192 15.5356164,33.8136986 C15.6260274,33.9191781 15.7315068,33.8136986 15.6938356,33.9342466 L15.6335616,33.9342466 C15.5815763,33.8977112 15.5122593,33.8977112 15.460274,33.9342466 C15.460274,33.9342466 15.5130137,33.8739726 15.5054795,33.8664384 C15.4979452,33.8589041 15.0910959,34.2130137 14.9479452,34.2280822 C14.8047945,34.2431507 15.1739726,34.0924658 15.0609589,34.069863 C14.759589,34.0246575 14.3075342,34.3938356 14.1493151,34.4691781 C14.1493151,34.4691781 14.1493151,34.4691781 14.1493151,34.4691781 C14.1493151,34.4691781 14.1493151,34.3938356 14.1493151,34.3938356 C14.1493151,34.3938356 13.9835616,34.6123288 13.9458904,34.589726 C13.9082192,34.5671233 13.8705479,34.5068493 13.8479452,34.4993151 L13.780137,34.4993151 C13.780137,34.4993151 13.780137,34.6876712 13.6821918,34.6650685 C13.5842466,34.6424658 13.6821918,34.6650685 13.6821918,34.6650685 C13.5541096,34.8684932 9.56849315,36.6616438 10.1712329,36.9253425 C10.2164384,36.9253425 10.4876712,36.9931507 10.4952055,36.9253425 C10.6157534,36.9931507 10.3972603,37.1363014 10.3219178,37.1589041 C10.2465753,37.1815068 10.3219178,37.0910959 10.3219178,37.0835616 C10.3219178,37.0760274 9.79452055,37.4678082 9.86232877,37.5054795 C9.93013699,37.5431507 9.98287671,37.5054795 9.99794521,37.5054795 C10.0130137,37.5054795 9.91506849,37.6034247 9.95273973,37.6260274 C9.99041096,37.6486301 10.3520548,37.4376712 10.4650685,37.3246575 C10.2691781,37.6034247 9.5609589,38.2287671 10.0205479,38.3267123 C10.1636986,38.3267123 10.1712329,38.1006849 10.2164384,38.0705479 C10.1787932,38.1797279 10.1584561,38.294124 10.1561644,38.409589 C10.2993275,38.3296308 10.4310997,38.2308017 10.5479452,38.1157534 C10.5479452,38.2287671 10.6082192,38.1609589 10.6609589,38.1157534 C10.6609589,38.1910959 10.389726,38.4849315 10.1712329,38.7636986 L10.3219178,38.7636986 C10.6006849,38.4623288 10.909589,38.1383562 10.969863,38.0630137 C11.030137,37.9876712 10.8191781,38.2589041 10.9171233,38.2664384 L10.9924658,38.2664384 C11.0963055,38.1589699 11.1759428,38.0305227 11.2260274,37.889726 C11.2260274,37.889726 11.2260274,37.889726 11.2260274,37.889726 C11.1518686,37.9507625 11.0814235,38.0161759 11.0150685,38.0856164 C11.0150685,38.0253425 11.2184932,37.8746575 11.0150685,37.889726 C11.1657534,37.7315068 11.1808219,37.5732877 11.3239726,37.4527397 C11.3239726,37.5205479 11.1808219,37.7239726 11.2109589,37.7616438 C11.2410959,37.7993151 11.640411,37.460274 11.7760274,37.2945205 L11.7760274,37.2945205 C11.7760274,37.2945205 11.8287671,37.2041096 11.8438356,37.1815068 C11.8589041,37.1589041 11.8965753,37.1815068 12.0020548,37.2342466 C12.619863,36.6315068 12.7554795,37.3020548 13.1849315,37.339726 C13.3431507,37.339726 13.1849315,37.1513699 13.1849315,37.1061644 C13.4201467,37.2777024 13.6726626,37.4241616 13.9383562,37.5431507 C13.8780822,37.5431507 13.6520548,37.5431507 13.7273973,37.6335616 C13.8027397,37.7239726 14.2171233,37.6335616 14.3828767,37.9575342 C14.5486301,38.2815068 14.6164384,39.0349315 15.339726,39.1328767 C15.7239726,39.1780822 17.0123288,39.3965753 16.7335616,39.5547945 C16.8767123,39.4719178 17.8034247,39.8486301 17.9842466,39.7582192 L17.9842466,39.7582192 C18.0746575,39.7054795 16.3719178,39.2157534 16.4773973,39.1630137 C16.7787671,38.989726 16.8089041,39.3136986 17.0349315,39.3363014 C17.8938356,39.4116438 18.9863014,39.8486301 19.9958904,39.6150685 C20.6477552,39.491062 21.2861104,39.3043494 21.9020548,39.0575342 C22.0753425,38.9520548 22.9568493,39.3739726 23.2506849,39.2006849 C23.2506849,39.2006849 23.190411,39.0650685 23.3712329,39.0876712 C23.4390411,39.0876712 23.3712329,39.1328767 23.3712329,39.1479452 C23.3712329,39.1630137 23.4616438,39.1479452 23.4691781,39.1479452 C23.4767123,39.1479452 23.5445205,38.959589 23.5972603,38.8616438 C23.2620039,38.933287 22.9153933,38.933287 22.580137,38.8616438 C21.6986301,38.6506849 22.519863,38.5753425 21.45,38.8616438 C21.45,38.6958904 21.2164384,38.5527397 21.1260274,38.3945205 C20.8623288,37.919863 20.5534247,38.6130137 20.7568493,38.6732877 C20.960274,38.7335616 20.2671233,39.1253425 19.7321918,38.9671233 C19.6869863,38.7410959 18.4513699,37.5808219 19.6869863,37.6486301 C19.7083118,37.6378841 19.733469,37.6378841 19.7547945,37.6486301 C19.7547945,37.5808219 19.8075342,37.4075342 19.8075342,37.3773973 C19.6568493,37.2643836 20.7267123,37.3321918 20.7643836,37.3321918 C20.9438976,37.3916786 21.1277925,37.4370226 21.3143836,37.4678082 C21.5780822,37.309589 20.2219178,36.7821918 20.6212329,36.4205479 C20.839726,36.2246575 20.6664384,36.0739726 20.6890411,35.9835616 C20.7116438,35.8931507 20.2369863,35.719863 20.380137,35.6143836 C20.380137,35.6143836 20.5534247,35.8630137 20.6136986,35.8705479 C20.6739726,35.8780822 20.4856164,35.5993151 20.4630137,35.5767123 L20.5684932,35.5767123 C20.5232877,35.5767123 20.5232877,35.3356164 20.5684932,35.2075342 L20.5684932,35.2075342 L20.5684932,35.169863 C20.5684932,35.169863 20.6363014,35.0945205 20.6664384,35.0945205 C20.6495787,35.0874038 20.6305583,35.0874038 20.6136986,35.0945205 C20.7041096,34.9815068 20.7191781,34.9438356 20.7945205,34.9815068 C20.869863,35.0191781 20.9527397,34.8534247 20.8321918,34.8308219 C20.7116438,34.8082192 20.8321918,34.8308219 20.7869863,34.8910959 C20.7417808,34.9513699 20.6965753,34.8910959 20.6815068,34.8910959 C20.6664384,34.8910959 20.7417808,34.6123288 20.7568493,34.5068493 C20.7568493,34.5068493 20.7568493,34.5520548 20.7568493,34.5671233 C20.7568493,34.5821918 21.0808219,34.130137 21.0883562,34.0849315 C21.0958904,34.039726 21.0883562,34.160274 21.0883562,34.1678082 C21.0883562,34.1753425 21.1938356,34.1075342 21.1938356,34.1 C21.1938356,34.0924658 20.8472603,34.3410959 21.1938356,34.4239726 C21.3068493,34.4239726 21.6986301,33.5726027 21.4876712,33.6705479 C21.2767123,33.7684932 21.2541096,33.8739726 21.2767123,33.8965753 C21.1833141,33.8562371 21.0841615,33.8308134 20.9828767,33.8212329 C20.9050494,33.8730884 20.8216513,33.916051 20.7342466,33.9493151 L20.7342466,33.9493151 C20.9075342,33.8815068 20.8547945,33.7835616 20.930137,33.7006849 C20.7945205,33.5424658 20.380137,34.2506849 20.3424658,34.3410959 C20.4705479,33.7835616 21.0958904,33.5876712 21.3369863,33.1130137 C21.5780822,32.9472603 21.2465753,32.6910959 21.0431507,32.7513699 Z M17.1554795,32.7513699 C17.1353881,32.7890411 17.1353881,32.8342466 17.1554795,32.8719178 C17.0047945,32.8643836 17.1027397,32.8116438 17.1554795,32.7739726 L17.1554795,32.7513699 Z M17.1554795,33.2260274 C17.2319881,33.1833595 17.3167859,33.1576631 17.4041096,33.1506849 C17.312999,33.1840745 17.2198962,33.2117538 17.1253425,33.2335616 L17.1554795,33.2260274 Z" id="Shape" fill="#FFFFFF"></path>
                <path d="" id="Path" fill="#FFFFFF"></path>
                <path d="" id="Path" fill="#FFFFFF"></path>
                <path d="" id="Path" fill="#FFFFFF"></path>
                <path d="" id="Path" fill="#FFFFFF"></path>
                <path d="" id="Path" fill="#FFFFFF"></path>
                <path d="M12.9212329,37.1061644 L12.9212329,37.1061644 C12.9212329,37.1061644 12.9061644,37.0308219 12.9212329,37.1061644 Z" id="Path" fill="#FFFFFF"></path>
                <path d="M19.739726,37.6260274 C19.739726,37.6260274 19.6794521,37.6260274 19.6417808,37.6260274 C19.6041096,37.6260274 19.6869863,37.6712329 19.739726,37.6260274 Z" id="Path" fill="#FFFFFF"></path>
                <path d="M19.3856164,32.6534247 L19.3856164,32.6534247 L19.3856164,32.6534247 C19.3856164,32.6534247 19.4006849,32.6609589 19.3856164,32.6534247 Z" id="Path" fill="#FFFFFF"></path>
                <path d="M29.4438356,37.2342466 C29.4438356,37.2342466 29.2479452,37.1061644 29.1876712,37.1438356 C28.9767123,37.2643836 28.6,37.2643836 28.7657534,37.5582192 C28.6376712,37.4828767 26.1815068,36.910274 26.3623288,37.4828767 C26.1664384,37.3020548 25.6089041,37.4828767 25.3527397,37.4828767 C24.9699526,37.6490662 24.5710356,37.7753057 24.1623288,37.859589 C24.1623288,37.8972603 24.1623288,38.1082192 24.1623288,38.0856164 L24.0493151,38.0856164 C24.0493151,38.0856164 24.1623288,37.9650685 24.0493151,37.9575342 C23.5972603,37.9123288 23.8609589,38.7712329 23.8986301,38.7109589 C23.8233635,38.7494632 23.7452859,38.7822055 23.6650685,38.8089041 C23.8986301,38.9068493 24.4184932,39.0952055 24.4184932,39.110274 C24.0568493,39.3136986 24.9835616,39.9541096 24.9534247,39.8184932 C25.5109589,40.240411 26.1212329,40.2479452 27.1684932,40.4589041 C27.8164384,40.5869863 29.1349315,40.1123288 29.4287671,40.7452055 C30.2878732,41.3595955 31.2535379,41.8092171 32.2767123,42.0712329 C32.2315068,42.1164384 32.480137,42.2294521 32.5479452,42.1842466 C32.6157534,42.1390411 32.3671233,42.0561644 32.3068493,42.0184932 L32.3068493,42.0184932 C32.3068493,42.0184932 32.8116438,42.1767123 32.7965753,42.2219178 C32.7815068,42.2671233 32.6534247,42.2219178 32.6082192,42.2219178 C32.5630137,42.2219178 33.030137,42.4780822 33.060274,42.4630137 C33.090411,42.4479452 33.2109589,42.3349315 33.1582192,42.3047945 C33.1054795,42.2746575 33.3465753,42.3047945 33.3616438,42.3726027 C33.3616438,42.6815068 34.3410959,42.5986301 34.3410959,42.5986301 L34.3863014,42.5986301 C34.3335616,42.5986301 34.2582192,42.5986301 34.3260274,42.6589041 C34.8183252,42.599838 35.3015766,42.4809227 35.7650685,42.3047945 L35.7650685,42.3047945 C35.6294521,42.3876712 35.7273973,42.1390411 35.719863,42.1239726 C34.9005617,42.3028108 34.0447696,42.0881659 33.4068493,41.5438356 C33.3541096,41.4609589 33.6178082,41.5438356 33.5952055,41.4760274 C33.5726027,41.4082192 33.0979452,41.5739726 33.060274,41.4760274 C33.0226027,41.3780822 33.2863014,40.9636986 33.0150685,41.159589 C33.6856164,40.4965753 33.1732877,40.9034247 32.6760274,40.609589 C33.090411,40.8506849 33.0979452,40.2178082 33.0075342,39.9315068 C33.0075342,39.9315068 33.0075342,39.9315068 33.0075342,39.9315068 C33.1431507,39.8561644 32.2541096,39.0952055 32.4876712,38.8164384 C32.7212329,38.5376712 31.3876712,36.7671233 30.8527397,36.7972603 C30.3699418,36.8964866 29.898046,37.04285 29.4438356,37.2342466 L29.4438356,37.2342466 Z" id="Shape" fill="#FFFFFF"></path>
                <path d="M23.2808219,29.0972603 C23.1461857,29.159799 23.015364,29.2302415 22.8890411,29.3082192 C23.0623288,29.1952055 23.0849315,29.1876712 23.3335616,29.0445205 C23.4390411,28.9842466 23.1226027,28.9842466 22.9116438,28.9842466 C22.9945205,28.9842466 23.2732877,28.8863014 23.0849315,28.8260274 C23.0472603,28.8260274 22.9568493,28.8712329 22.9191781,28.8712329 C22.8815068,28.8712329 23.1,28.7808219 23.1376712,28.6753425 C23.1753425,28.569863 23.0849315,28.6753425 23.069863,28.6753425 C23.0547945,28.6753425 23.2205479,28.5924658 23.2356164,28.5321918 C23.2506849,28.4719178 23.1075342,28.5321918 23.0849315,28.5321918 C23.190411,28.3664384 22.9794521,28.4493151 22.8965753,28.4191781 C22.8136986,28.3890411 23.0321918,28.3438356 23.1150685,28.3513699 C23.1061367,28.3167773 23.1061367,28.280483 23.1150685,28.2458904 C23.0020548,28.2006849 23.0020548,28.3212329 22.8965753,28.3061644 C22.7910959,28.2910959 23.039726,28.2609589 23.0020548,28.2383562 C22.9643836,28.2157534 22.7835616,28.3664384 22.7684932,28.3739726 C22.5575342,28.1780822 23.4767123,27.7561644 23.2958904,27.6205479 C23.0740858,27.7584599 22.8394251,27.8745287 22.5952055,27.9671233 C22.5952055,27.9671233 22.7006849,28.0349315 22.5424658,28.0876712 C22.5424658,27.959589 22.3013699,28.2006849 22.2561644,28.1931507 C22.2109589,28.1856164 22.5575342,27.9821918 22.5349315,27.9671233 C22.5123288,27.9520548 21.5856164,28.4869863 21.5630137,28.4945205 C21.540411,28.5020548 21.6609589,28.4267123 21.6232877,28.4041096 C21.5856164,28.3815068 20.6815068,29.1123288 20.5458904,29.0972603 C20.5458904,29.0972603 20.4479452,29.0972603 20.4856164,29.0972603 C20.5232877,29.0972603 20.7041096,28.9993151 20.7869863,29.0294521 C20.7267123,29.089726 20.2520548,29.1726027 20.2821918,29.2630137 C20.3123288,29.3534247 20.3876712,29.2630137 20.4178082,29.2630137 C20.4479452,29.2630137 20.1315068,29.4287671 20.1089041,29.4513699 C19.7250264,29.6576562 19.3681968,29.9107269 19.0465753,30.2047945 C19.0993151,30.2047945 19.189726,30.0993151 19.2349315,30.1143836 C19.4232877,30.1746575 18.4815068,30.6342466 18.5869863,30.7171233 C18.6924658,30.8 18.8280822,30.6493151 18.8657534,30.6417808 C18.9034247,30.6342466 18.6547945,30.7246575 18.7,30.769863 C18.9184932,30.9506849 19.6191781,30.219863 19.8,30.310274 C19.9808219,30.4006849 19.7623288,30.310274 19.9506849,30.310274 C19.9539636,30.3532398 19.98139,30.3906022 20.0213988,30.4066058 C20.0614076,30.4226093 20.1070353,30.4144685 20.1390411,30.3856164 C20.1390411,30.3856164 20.0787671,30.6191781 20.1390411,30.4684932 C20.1390411,30.4684932 20.1390411,30.6041096 20.1390411,30.6041096 C20.2320289,30.6085007 20.3118717,30.5386382 20.319863,30.4458904 C20.3870574,30.5109591 20.4937645,30.5109591 20.5609589,30.4458904 L20.5609589,30.4458904 C20.4948375,30.5037708 20.4024611,30.5210914 20.319863,30.4910959 C20.1993151,30.4910959 20.2671233,30.7246575 20.2746575,30.7472603 C20.2821918,30.769863 20.4479452,30.7020548 20.5232877,30.6417808 C20.5232877,30.7924658 20.4554795,31.0260274 20.5986301,30.9582192 C20.6664384,31.3123288 21.3143836,31.2219178 21.7061644,31.2219178 C22.0524414,30.7641306 22.2895264,30.2332663 22.3993151,29.669863 C22.6235295,29.6368072 22.8261353,29.5179452 22.9643836,29.3383562 C23.0773973,29.3835616 23.2808219,29.0972603 23.2808219,29.0972603 Z M22.8890411,28.9089041 C22.8890411,28.9089041 22.8212329,28.9767123 22.8890411,28.9917808 L22.7534247,28.9917808 C22.7942511,28.9575563 22.839961,28.9296225 22.8890411,28.9089041 Z M20.6061644,30.6869863 L20.4630137,30.6869863 C20.506994,30.6533585 20.5551028,30.625506 20.6061644,30.6041096 C20.6061644,30.6041096 20.6136986,30.6493151 20.6061644,30.6869863 L20.6061644,30.6869863 Z" id="Shape" fill="#FFFFFF"></path>
                <path d="M23.1376712,28.4116438 C23.1376712,28.4116438 23.1376712,28.4116438 23.1376712,28.4116438 C23.1376712,28.4116438 23.130137,28.4116438 23.1376712,28.4116438 Z" id="Path" fill="#FFFFFF"></path>
                <path d="M26.2041096,29.4513699 C26.2041096,29.4513699 26.2041096,29.3534247 26.2041096,29.3383562 C26.2041096,29.3232877 26.2041096,29.4287671 26.2945205,29.4363014 C26.3849315,29.4438356 26.2945205,29.3609589 26.2945205,29.3458904 C26.2945205,29.3308219 26.2945205,29.4739726 26.2945205,29.4890411 C26.2945205,29.5041096 26.2945205,29.4136986 26.2945205,29.4061644 C26.2945205,29.3986301 26.339726,29.4815068 26.3773973,29.4890411 C26.4150685,29.4965753 26.3773973,29.3760274 26.3773973,29.3760274 C26.3773973,29.3760274 26.4376712,29.4664384 26.460274,29.4739726 C26.4828767,29.4815068 26.6034247,29.3835616 26.6184932,29.3609589 C26.6335616,29.3383562 26.7390411,29.639726 26.6712329,29.6020548 C26.7315068,29.639726 26.7541096,29.6020548 26.8294521,29.6020548 C26.9047945,29.6020548 26.8294521,29.7452055 26.8294521,29.7527397 C26.931568,29.7338547 27.0273732,29.689836 27.1082192,29.6246575 C27.1082192,29.6246575 26.889726,29.9109589 26.9650685,29.9260274 C27.040411,29.9410959 27.7184932,29.3986301 27.6054795,29.3609589 C27.5681824,29.3534499 27.5297628,29.3534499 27.4924658,29.3609589 C27.4924658,29.2780822 27.4924658,29.0671233 27.2589041,29.2705479 C26.9868533,29.1983457 26.7200276,29.1077257 26.460274,28.9993151 C26.3472603,28.9993151 26.3020548,29.1349315 26.2191781,29.1273973 C26.1363014,29.119863 26.2191781,28.8863014 26.1815068,28.9013699 L26.1212329,28.9013699 C26.0926356,28.9952837 26.069988,29.0909072 26.0534247,29.1876712 C26.0534247,29.2328767 26.0534247,29.2554795 25.9554795,29.3082192 C26.1287671,29.3835616 26.1890411,29.4513699 26.2041096,29.4513699 Z" id="Path" fill="#FFFFFF"></path>
                <path d="M44.4520548,19.4006849 L44.4520548,19.4006849 C44.4520548,19.4006849 44.4520548,19.3931507 44.4520548,19.4006849 Z" id="Path" fill="#FFFFFF"></path>
                <path d="M45.5369863,23.8458904 C45.6349315,23.8986301 46.0267123,22.7157534 45.2205479,22.6780822 C45.2808219,22.6780822 45.009589,22.7986301 45.0171233,22.7986301 C45.2431507,22.6178082 44.5876712,22.6178082 44.3993151,22.6178082 C43.5856164,22.6178082 44.1808219,22.4445205 43.9547945,22.3164384 L43.8719178,22.3164384 C43.8191781,22.3164384 43.0582192,22.7458904 42.9753425,22.5876712 C43.1184932,22.5047945 42.9150685,22.2863014 43.0883562,22.2486301 C43.1486301,22.2486301 43.2917808,22.3315068 43.3746575,22.3767123 C43.6207726,22.2895403 43.872485,22.2190608 44.1280822,22.1657534 C44.4294521,21.9924658 44.4746575,22.2260274 44.8815068,22.2787671 C44.8815068,22.2787671 45.2657534,21.939726 44.8815068,21.9321918 C44.6479452,21.9321918 43.4575342,21.7965753 43.7664384,21.6232877 C44.4746575,21.2089041 43.3369863,20.869863 42.7342466,20.6363014 C43.0883562,20.4931507 44.0075342,20.8773973 44.2410959,20.7417808 C44.2787671,20.7417808 44.1582192,20.7041096 44.1431507,20.6890411 C44.1991602,20.6661463 44.2571707,20.6484909 44.3164384,20.6363014 C44.1732877,20.6363014 43.6383562,20.5835616 43.5630137,20.5760274 C43.6618275,20.5406634 43.7624212,20.5104853 43.8643836,20.4856164 C43.8643836,20.4856164 42.2671233,20.4856164 42.2294521,20.4856164 L42.2294521,20.4856164 C42.1767123,20.5383562 42.440411,20.4856164 42.4705479,20.4856164 C42.5006849,20.4856164 42.4705479,20.4856164 42.6664384,20.5760274 C42.289726,20.5760274 41.860274,20.6287671 41.769863,20.7794521 C41.709589,20.7417808 41.4684932,20.7794521 41.4986301,20.7794521 C41.5287671,20.7794521 41.6719178,20.7794521 41.6869863,20.7794521 C41.7020548,20.7794521 41.4684932,20.7794521 41.4609589,20.7794521 C41.4534247,20.7794521 41.5212329,20.839726 41.340411,20.8924658 C41.2424658,20.5609589 41.0691781,19.890411 41.9280822,19.8527397 C41.9069609,19.8674852 41.8911184,19.8886086 41.8828767,19.9130137 C41.9732877,19.9657534 42.2821918,19.6643836 42.2746575,19.6643836 C42.2164718,19.6173728 42.1500435,19.5816037 42.0787671,19.5589041 C42.094962,19.5074076 42.094962,19.4521814 42.0787671,19.4006849 C42.0787671,19.4760274 42.6739726,19.310274 42.440411,19.2123288 C42.3952055,19.2123288 42.2746575,19.2123288 42.2143836,19.2123288 C42.3638328,19.1850376 42.5169891,19.1850376 42.6664384,19.2123288 C42.7118196,19.3384132 42.7646524,19.4616898 42.8246575,19.5815068 C42.8246575,19.5815068 44.6856164,19.7547945 44.640411,19.7472603 C44.7910959,19.7472603 44.5123288,19.4986301 44.3089041,19.4760274 C44.3467681,19.4415697 44.3900391,19.4135708 44.4369863,19.3931507 C44.3767123,19.3931507 44.1808219,19.3931507 44.1657534,19.3931507 C44.1506849,19.3931507 44.1657534,19.189726 43.9773973,19.1972603 L43.9773973,19.1972603 C43.7890411,19.1972603 43.0958904,19.3780822 43.0054795,19.1972603 C42.9150685,19.0164384 43.4650685,18.9260274 43.6609589,18.8054795 C43.4575342,18.9260274 43.6609589,18.1650685 43.8342466,18.3383562 C43.7287671,18.2027397 43.1636986,18.4890411 43.0130137,18.4664384 C43.0732877,18.4664384 43.2239726,18.3684932 43.1335616,18.3232877 C43.0458575,18.3149992 42.9575672,18.3149992 42.869863,18.3232877 C42.869863,18.3232877 42.9452055,18.3232877 42.869863,18.3232877 C43.2689492,18.247405 43.6531341,18.1074701 44.0075342,17.9089041 C44.0075342,17.9089041 43.7513699,17.9089041 43.7212329,17.9089041 C43.6910959,17.9089041 43.8493151,17.8486301 43.7890411,17.8260274 C43.7287671,17.8034247 42.9452055,18.0068493 42.9979452,18.0821918 L43.1712329,18.0821918 C42.323351,18.3401507 41.4928804,18.6522063 40.6849315,19.0164384 C40.6849315,19.0164384 41.0917808,18.9712329 41.0767123,18.9636986 C41.1294521,19.1219178 38.2664384,20.1616438 37.7842466,20.4027397 C37.7842466,20.4027397 37.8445205,20.3575342 37.8445205,20.35 L37.8445205,20.35 C37.6595661,20.4266631 37.4807357,20.5173377 37.309589,20.6212329 C37.3393445,20.6280148 37.3702446,20.6280148 37.4,20.6212329 C37.4,20.6212329 37.2719178,20.6965753 37.2869863,20.7116438 C37.3020548,20.7267123 37.5732877,20.6664384 37.5808219,20.6664384 C37.4075342,20.7869863 37.1212329,20.8623288 36.8273973,21.0280822 C36.8273973,21.0280822 36.9705479,21.0808219 37.0082192,21.0958904 C36.880137,21.1335616 35.4184932,21.3671233 35.5616438,21.5328767 C35.5616438,21.5328767 35.7349315,21.5328767 35.780137,21.5328767 C35.2678082,21.6308219 34.8609589,22.1130137 34.4767123,22.1356164 C34.4767123,22.1356164 34.6047945,22.0527397 34.559589,22.030137 C34.5143836,22.0075342 34.3335616,22.2260274 34.3410959,22.2335616 C34.3486301,22.2410959 34.4390411,22.2335616 34.4541096,22.1808219 C34.4691781,22.1280822 34.130137,22.3917808 34.2130137,22.4369863 C34.1,22.3691781 34.4842466,22.0753425 34.3636986,22.030137 C33.9945205,21.8794521 32.909589,22.6856164 32.9773973,22.6630137 C32.7136986,22.7609589 32.7438356,22.8815068 32.480137,22.9794521 C32.4273973,23.0246575 31.9979452,23.4164384 32.0582192,23.4541096 C32.1184932,23.4917808 32.2842466,23.3636986 32.3219178,23.3561644 C32.359589,23.3486301 31.809589,23.6273973 31.9075342,23.7027397 C32.0054795,23.7780822 32.389726,23.589726 32.419863,23.6047945 C32.2517662,23.6910933 32.0749744,23.7592844 31.8924658,23.8082192 C31.8924658,23.8082192 31.9753425,23.7554795 31.9678082,23.740411 C31.960274,23.7253425 31.809589,23.9287671 31.8246575,23.9061644 C31.839726,23.8835616 31.9150685,23.8458904 31.9979452,23.8308219 C32.0808219,23.8157534 31.7945205,23.9136986 31.8321918,23.9438356 L31.8321918,23.9438356 C31.7386403,23.9679642 31.6424993,23.9806143 31.5458904,23.9815068 C31.6061644,24.0267123 31.6965753,24.109589 31.6589041,24.109589 L31.6589041,24.109589 C31.1767123,24.109589 30.6643836,24.1547945 31.1013699,24.4486301 L31.3575342,24.4486301 C31.4479452,24.6068493 31.6287671,24.3054795 31.7794521,24.4486301 C31.3445784,24.5742393 30.9190956,24.7303335 30.5061644,24.9157534 L30.9356164,24.8178082 C31.1239726,24.9157534 30.7472603,24.9082192 30.6869863,24.9157534 C30.6196172,25.0346146 30.530105,25.1394717 30.4232877,25.2246575 C30.3027397,25.2246575 30.4232877,25.2246575 30.3856164,25.1568493 C30.3479452,25.0890411 29.9712329,25.8123288 29.7452055,25.7369863 C29.7452055,25.6842466 29.8582192,25.6767123 29.8431507,25.6315068 C29.8280822,25.5863014 29.5041096,25.7445205 29.4136986,25.7520548 C29.3232877,25.759589 29.8205479,25.8123288 29.7979452,25.7972603 C29.7753425,25.7821918 29.7979452,25.85 29.8657534,25.8575342 C29.3534247,25.910274 29.6924658,26.1061644 29.7226027,26.1438356 C29.7527397,26.1815068 29.2705479,26.2417808 29.3157534,26.3472603 C29.3609589,26.4527397 29.5719178,26.3472603 29.609589,26.3472603 C29.5041096,26.5280822 28.9089041,26.460274 28.6979452,26.4753425 C28.8184932,26.339726 30.0767123,25.8726027 29.1123288,26.0458904 C28.7045617,26.1155252 28.3135224,26.2612065 27.959589,26.4753425 C27.959589,26.4753425 28.05,26.369863 28.0273973,26.3623288 C27.8917808,26.309589 27.7410959,26.5054795 27.7260274,26.5130137 L27.7260274,26.4452055 C27.5753425,26.4452055 27.6356164,26.5506849 27.6130137,26.5883562 L27.6130137,26.5883562 C27.6130137,26.5883562 27.6130137,26.6335616 27.5452055,26.6938356 C27.4773973,26.7541096 27.5452055,26.5883562 27.5,26.5883562 C27.3998904,26.6832647 27.2914645,26.7689968 27.1760274,26.8445205 C27.2158201,26.8366039 27.2567826,26.8366039 27.2965753,26.8445205 C27.1534247,26.9123288 27.1609589,26.9273973 27.1383562,27.010274 C26.9650685,26.889726 27.0178082,27.1006849 27.0554795,27.1534247 C26.8520548,27.1157534 26.9650685,27.1534247 26.980137,27.2363014 C26.7842466,27.1835616 26.7842466,27.3945205 26.7089041,27.4924658 L26.7541096,27.4924658 C26.7541096,27.4924658 26.859589,27.3568493 26.889726,27.3342466 C27.3041096,27.560274 26.6938356,28.0876712 26.8219178,28.1780822 C26.7691781,28.140411 26.7239726,28.6226027 27.0705479,28.5246575 C27.1458904,28.6753425 27.8239726,28.4568493 27.6054795,28.2308219 C28.2157534,28.4041096 28.05,28.3890411 28.2835616,28.5547945 C28.3158661,28.5614961 28.3492023,28.5614961 28.3815068,28.5547945 C28.7582192,28.3363014 28.4267123,27.9972603 28.4267123,27.7260274 C28.4267123,27.7260274 27.7787671,27.7636986 27.9219178,27.5376712 C28.012355,27.3967873 28.1104473,27.2609671 28.2157534,27.1308219 C28.1704787,27.2173377 28.1767184,27.3217899 28.2319708,27.4023005 C28.2872232,27.4828111 28.3824422,27.5261989 28.4794521,27.5150685 C28.7958904,27.5150685 29.1424658,27.2212329 29.4513699,27.0780822 C29.3383562,27.1835616 28.6979452,27.560274 28.8787671,27.6657534 L28.9767123,27.6657534 C28.9767123,27.6657534 29.1575342,27.439726 29.1650685,27.4924658 C29.2178662,27.5180975 29.2682913,27.5483525 29.3157534,27.5828767 C29.1349315,27.7787671 29.0746575,28.4794521 28.3664384,28.6150685 C28.3212329,28.7657534 27.9068493,28.3438356 27.8390411,28.3438356 C27.3568493,28.3438356 28.140411,28.7356164 28.1479452,28.7356164 C27.9722159,29.0921084 27.7654839,29.4324599 27.530137,29.7527397 C27.7636986,29.6171233 27.530137,30.0842466 27.3945205,30.0767123 C27.590411,30.1445205 28.9390411,29.9561644 27.9671233,30.5212329 C27.3794521,30.8527397 27.9143836,31.0486301 28.4191781,31.3575342 C28.660274,31.2671233 29.7979452,30.739726 29.1726027,30.5513699 C28.7732877,30.4383562 29.3835616,29.2931507 29.8657534,29.5719178 C30.1546497,29.4879068 30.4492579,29.4249564 30.7472603,29.3835616 C31.0561644,29.5417808 30.7472603,29.7150685 30.8075342,29.7376712 C31.3650685,30.0616438 31.2520548,29.2027397 31.0260274,29.210274 C31.0962274,29.2160749 31.1667863,29.2160749 31.2369863,29.210274 C31.2369863,29.1047945 30.0239726,29.3383562 29.8280822,29.210274 C29.6321918,29.0821918 30.1671233,29.0445205 30.1972603,29.059589 C30.8813101,29.1090092 31.5687501,29.0812084 32.2465753,28.9767123 C32.2408883,28.9493794 32.2408883,28.9211685 32.2465753,28.8938356 C32.0448789,28.9053021 31.8425347,28.8926556 31.6438356,28.8561644 C31.6890411,28.8561644 31.960274,28.5171233 32.1109589,28.5849315 C32.1109589,28.5849315 32.1561644,28.7280822 32.2089041,28.7431507 C32.3746575,28.7808219 32.2616438,28.6376712 32.2616438,28.6452055 C32.3166051,28.6838046 32.3522906,28.7441954 32.359589,28.8109589 C32.4248486,28.7925367 32.4879833,28.7672828 32.5479452,28.7356164 C32.5479452,28.7356164 32.4952055,28.8335616 32.6986301,28.7808219 C32.6986301,28.7808219 32.6986301,28.8787671 32.6986301,28.8863014 C32.6986301,28.8938356 32.6986301,28.8109589 32.7513699,28.7582192 C32.8041096,28.7054795 32.7061644,28.7582192 32.7513699,28.8335616 C32.8114253,28.8263025 32.8721364,28.8263025 32.9321918,28.8335616 C32.9321918,28.8335616 32.8719178,28.7582192 32.8794521,28.7356164 C32.8869863,28.7130137 33.8363014,28.2910959 33.7308219,28.2308219 C34.6726027,28.6 34.1753425,28.9842466 33.3842466,29.3082192 C33.2636986,29.3609589 32.0431507,29.9410959 32.6308219,29.9109589 C32.1623467,29.952667 31.6999358,30.0461599 31.2520548,30.189726 C30.9808219,30.2726027 30.9958904,29.9260274 30.769863,29.8958904 C30.1746575,29.8205479 29.0369863,31.4027397 28.9616438,31.5835616 C28.9825364,32.083409 29.1275357,32.5701924 29.3835616,33 C29.7720812,33.3696943 30.2171933,33.674914 30.7020548,33.9041096 C31.1390411,33.9041096 31.7267123,34.0171233 32.2917808,34.0246575 C33.3993151,34.1150685 33.6328767,33.4068493 34.1452055,33.030137 C34.2808219,32.9321918 35.6520548,32.5856164 35.6520548,32.9623288 C35.6520548,33.1883562 37.2417808,33.4671233 37.6184932,33.5650685 C38.4472603,33.7835616 38.2815068,34.3938356 39.3815068,34.5219178 C40.1349315,34.6047945 41.0691781,35.139726 41.709589,35.2226027 C42.1993151,35.2828767 42.4027397,34.8986301 42.7417808,34.7027397 C43.4952055,34.2657534 42.1767123,33.2410959 42.0712329,32.969863 C41.6191781,32.7815068 42.0712329,32.1410959 41.3931507,31.7568493 C41.280137,31.6890411 39.7205479,31.2520548 40.180137,31.0034247 C40.639726,30.7547945 39.8712329,29.3082192 39.5321918,29.1575342 C39.1335328,29.3070551 38.7521148,29.499027 38.3945205,29.730137 C38.4321918,29.4815068 34.8534247,29.3835616 34.4089041,28.9767123 C34.5068493,28.9767123 34.8458904,29.0746575 34.9363014,29.0219178 C35.0267123,28.9691781 34.8157534,28.8938356 34.7856164,28.8636986 C35.0945205,29.0219178 38.4773973,29.3534247 38.4849315,29.4438356 C38.4321918,28.8787671 39.8109589,28.0650685 38.9294521,27.5979452 C38.9746575,27.5979452 37.7465753,27.6582192 37.8746575,27.5979452 C37.7089041,27.6958904 37.9273973,27.9294521 37.6938356,28.0650685 C37.460274,28.2006849 37.3924658,27.8616438 37.2267123,27.959589 C37.1815068,27.959589 37.3246575,28.05 37.3246575,28.0575342 C37.3246575,28.0650685 35.9458904,27.989726 36.4205479,27.7863014 C36.5034247,27.7863014 37.6712329,27.8767123 37.6486301,27.6280822 C37.6260274,27.3794521 39.8636986,27.0554795 40.1123288,26.8746575 C40.1123288,26.9349315 39.9917808,27.010274 40.0068493,27.0253425 C40.0219178,27.040411 40.6472603,27.0253425 40.5794521,26.889726 C41.2047945,27.1760274 43.8643836,27.6431507 43.3671233,27.2589041 C43.2541096,27.1835616 42.380137,26.7616438 42.5157534,26.5883562 C42.6472905,26.2701003 42.6163991,25.9078287 42.4328767,25.6164384 C42.5534247,25.6917808 42.7116438,25.5260274 42.6287671,25.4657534 C42.7643836,25.5034247 42.809589,25.3828767 42.7568493,25.3527397 C43.2089041,25.5034247 44.3767123,25.6239726 44.3691781,25.4130137 C44.3691781,25.0739726 46.0116438,25.940411 45.9513699,25.9780822 C45.8910959,26.0157534 45.9061644,25.910274 45.8986301,25.9027397 L46.1246575,25.9479452 C46.1246575,25.9479452 47.789726,26.2568493 47.7822173,26.0458904 C47.7822173,25.9554795 44.8136986,25.6541096 45.3410959,25.3452055 C45.7961769,25.3102411 46.2537732,25.3279382 46.7047945,25.3979452 C47.1116438,24.5315068 44.2938356,24.6445205 45.1979452,24.1020548 C45.2689507,24.1386319 45.341889,24.1713284 45.4164384,24.2 C45.2431507,24.1849315 45.5746575,23.9061644 45.5369863,23.8458904 Z M32.1034247,23.8458904 L32.0582192,23.8458904 C32.1260274,23.8308219 32.1712329,23.8006849 32.1034247,23.8458904 Z M32.2767123,24.4109589 C32.5178082,24.2678082 32.2239726,24.1547945 31.8547945,24.1020548 C32.0454951,24.1018502 32.2336236,24.0580395 32.4047945,23.9739726 C32.4047945,23.9739726 32.2691781,24.0643836 32.2842466,24.0869863 C32.2993151,24.109589 32.9020548,24.3054795 32.2767123,24.4109589 L32.2767123,24.4109589 Z M32.419863,23.9664384 C32.5420905,23.9462028 32.6668136,23.9462028 32.7890411,23.9664384 C32.7287671,23.9815068 32.5328767,23.9363014 32.3972603,23.9664384 L32.419863,23.9664384 Z" id="Shape" fill="#FFFFFF"></path>
                <path d="M43.4123288,22.3390411 L43.359589,22.3390411 C43.359589,22.3390411 43.3520548,22.3390411 43.4123288,22.3390411 Z" id="Path" fill="#FFFFFF"></path>
                <path d="" id="Path" fill="#FFFFFF"></path>
                <path d="M32.3445205,28.8184932 L32.3445205,28.8184932 C32.3445205,28.8184932 32.3369863,28.8109589 32.3445205,28.8184932 Z" id="Path" fill="#FFFFFF"></path>
                <path d="M32.939726,28.8335616 C32.939726,28.8335616 32.939726,28.8335616 32.939726,28.8335616 C32.939726,28.8335616 32.9623288,28.8410959 32.939726,28.8335616 Z" id="Path" fill="#FFFFFF"></path>
                <path d="M54.1787671,23.6349315 C54.1787671,23.6349315 54.4424658,23.4691781 54.1109589,23.5369863 C54.1109589,23.5369863 54.1109589,23.5369863 54.1109589,23.5369863 C53.9678082,23.5369863 51.7979452,23.7253425 52.1972603,24.0267123 C52.340411,24.1321918 51.4438356,24.109589 51.3006849,24.290411 C51.3006849,24.290411 51.3006849,24.290411 51.3006849,24.290411 C51.4867194,24.2923794 51.6720332,24.266994 51.8506849,24.2150685 C51.7979452,24.260274 51.7075342,24.3130137 51.7150685,24.3356164 C51.8238549,24.3442959 51.932034,24.3593906 52.0390411,24.3808219 C52.0917808,24.3808219 52.0390411,24.2828767 52.0390411,24.2452055 C52.2876712,24.3883562 52.7924658,24.1849315 53.1917808,24.4184932 C53.35,24.5013699 54.1486301,23.8609589 53.8924658,24.0041096 C54.0054795,23.6575342 54.7664384,23.9287671 55.1506849,23.710274 C55.1580251,23.6805839 55.1580251,23.6495531 55.1506849,23.619863 C55.0376712,23.6047945 54.2465753,23.8006849 54.1787671,23.6349315 Z" id="Path" fill="#FFFFFF"></path>
                <path d="M56.4164384,24.9157534 C56.3042313,24.8721245 56.1958638,24.8192008 56.0924658,24.7575342 C55.9568493,24.6821918 54.8116438,24.6068493 54.7739726,24.5691781 C54.7363014,24.5315068 54.1335616,24.260274 54.1034247,24.2753425 C54.0732877,24.290411 54.9321918,25.1493151 54.6534247,25.1493151 C54.3531542,25.1823351 54.0513882,25.1999381 53.7493151,25.2020548 C53.6287671,25.2020548 53.7493151,24.8479452 53.6136986,24.8554795 L53.4931507,24.8630137 C53.4178082,24.9006849 53.5684932,24.9308219 53.4931507,24.9609589 C53.4178082,24.9910959 53.3726027,24.9232877 53.3876712,24.9157534 C53.1917808,25.0287671 52.9431507,25.0513699 52.7924658,25.1342466 C52.6417808,25.2171233 53.0034247,25.1342466 53.0109589,25.1719178 C53.0184932,25.209589 52.6719178,25.7671233 52.9657534,25.6164384 C53.0184932,25.7068493 52.7924658,25.6767123 52.8527397,25.7671233 C52.3554795,25.5184932 52.4609589,26.0910959 52.5212329,26.1739726 C52.5815068,26.2568493 52.4082192,26.1739726 52.3856164,26.1739726 C52.3630137,26.1739726 52.5363014,26.2417808 52.5513699,26.2568493 C52.4458904,26.2568493 52.5513699,26.2568493 52.5513699,26.3246575 C52.5513699,26.3924658 52.4082192,26.2568493 52.3630137,26.2568493 C52.381169,26.6902204 52.2479855,27.1164075 51.9863014,27.4623288 C51.9863014,27.4623288 51.9034247,27.3945205 51.8808219,27.409589 C52.0239726,27.5452055 52.3027397,27.6883562 52.4232877,27.8013699 C52.5438356,27.9143836 52.4232877,27.8013699 52.4232877,27.8390411 C52.4232877,27.8767123 52.3328767,27.8013699 52.310274,27.8390411 C52.2876712,27.8767123 52.4609589,27.8917808 52.4006849,27.9294521 C52.340411,27.9671233 52.2123288,27.8541096 52.1821918,27.8691781 C52.5514728,28.0040041 52.9051198,28.1783015 53.2369863,28.3890411 C53.6061644,28.7657534 53.4630137,28.6376712 53.9150685,28.2986301 C54.3671233,27.959589 54.4349315,27.6130137 54.9321918,27.3267123 C55.0666275,27.2468101 55.2203274,27.2051288 55.3767123,27.2061644 C55.9199553,27.4761904 56.5288559,27.5859493 57.1321918,27.5226027 C57.3356164,27.5226027 57.5164384,27.3719178 57.4938356,27.2513699 C57.4974297,27.1936632 57.4974297,27.1357888 57.4938356,27.0780822 C57.8328767,26.8746575 57.6520548,25.2020548 57.1171233,24.9458904 C57.260274,24.9910959 56.2280822,24.8027397 56.4164384,24.9157534 Z" id="Path" fill="#FFFFFF"></path>
                <path d="M35.8931507,12.3184932 L35.8931507,12.3184932 C34.7088578,12.323414 33.5381592,12.0661175 32.4650685,11.5650685 L35.8931507,30.5287671 L39.3287671,11.5424658 C38.2545155,12.050503 37.0814727,12.3154667 35.8931507,12.3184932 Z" id="Path" fill="#FDB813"></path>
                <path d="M35.8931507,0 C32.2813597,0 29.3534247,2.92793507 29.3534247,6.53972603 C29.3534247,10.151517 32.2813597,13.0794521 35.8931507,13.0794521 C39.5049416,13.0794521 42.4328767,10.151517 42.4328767,6.53972603 C42.4328767,4.80528285 41.7438718,3.14187794 40.5174353,1.91544141 C39.2909988,0.689004871 37.6275939,0 35.8931507,0 Z" id="Path" fill="#EE3C3B"></path>
                <path d="M37.2869863,2.0869863 C35.7224317,2.0869863 34.4541096,3.35530841 34.4541096,4.91986301 C34.4541096,6.48441762 35.7224317,7.75273973 37.2869863,7.75273973 C38.8515409,7.75273973 40.119863,6.48441762 40.119863,4.91986301 C40.119863,3.35530841 38.8515409,2.0869863 37.2869863,2.0869863 L37.2869863,2.0869863 Z" id="Path" fill="#FF5857"></path>
            </g>
        </g>
    </g>
</svg>