<?xml version="1.0" encoding="UTF-8"?>
<svg width="65px" height="53px" viewBox="0 0 65 53" version="1.1" xmlns="http://www.w3.org/2000/svg" xmlns:xlink="http://www.w3.org/1999/xlink">
    <title>6562510F-0197-4606-A240-372B8A985D18</title>
    <g id="web" stroke="none" stroke-width="1" fill="none" fill-rule="evenodd">
        <g id="home-v4" transform="translate(-555.000000, -2067.000000)" fill-rule="nonzero">
            <g id="Recurso-1" transform="translate(555.000000, 2067.000000)">
                <g id="Group" transform="translate(42.297872, 4.851064)">
                    <polygon id="Path" fill="#919394" points="3.47553191 1.55638298 1.4393617 0.362765957 10.4734043 1.29893617 12.5212766 2.48085106"></polygon>
                    <polygon id="Path" fill="#9FA1A3" points="2.36382979 4.48191489 0.327659574 3.3 1.4393617 0.362765957 3.47553191 1.55638298"></polygon>
                    <polygon id="Path" fill="#EAEDEF" points="3.47553191 1.55638298 12.5212766 2.48085106 11.3978723 5.41808511 2.36382979 4.48191489"></polygon>
                </g>
                <g id="Group" transform="translate(28.255319, 6.021277)">
                    <polygon id="Path" fill="#7D7F80" points="4.36489362 15.3297872 2.3287234 14.1478723 0.737234043 13.1882979 2.77340426 14.3819149"></polygon>
                    <polygon id="Path" fill="#A7A9AB" points="2.77340426 14.3819149 0.737234043 13.1882979 8.07446809 0.257446809 10.1106383 1.4393617"></polygon>
                    <polygon id="Path" fill="#EAEDEF" points="10.1106383 1.4393617 11.7138298 2.39893617 4.36489362 15.3297872 2.77340426 14.3819149"></polygon>
                </g>
                <g id="Group" transform="translate(28.255319, 29.425532)">
                    <polygon id="Path" fill="#818384" points="7.45425532 12.9776596 5.23085106 12.1702128 0.725531915 2.51595745 2.94893617 3.32340426"></polygon>
                    <polygon id="Path" fill="#ADB0B1" points="2.94893617 3.32340426 0.725531915 2.51595745 2.51595745 0.222340426 4.7393617 1.02978723"></polygon>
                    <polygon id="Path" fill="#EAEDEF" points="4.7393617 1.02978723 9.24468085 10.6840426 7.45425532 12.9776596 2.94893617 3.32340426"></polygon>
                </g>
                <g id="Group" transform="translate(9.531915, 25.914894)">
                    <polygon id="Path" fill="#A0A2A4" points="3.4287234 4.30638298 1.38085106 3.11276596 11.4446809 0.491489362 13.4925532 1.67340426"></polygon>
                    <polygon id="Path" fill="#959899" points="2.84361702 7.19680851 0.807446809 6.01489362 1.38085106 3.11276596 3.4287234 4.30638298"></polygon>
                    <polygon id="Path" fill="#EAEDEF" points="3.4287234 4.30638298 13.4925532 1.67340426 12.9191489 4.56382979 2.84361702 7.19680851"></polygon>
                </g>
                <path d="M8.59574468,24.4404255 C12.1793693,25.5046057 14.2577592,29.2353156 13.2765957,32.8425532 C12.8496386,34.5820829 11.7410093,36.0768034 10.2002679,36.9902429 C8.65952644,37.9036825 6.81615411,38.1590773 5.08510638,37.6989362 C1.50148176,36.634756 -0.57690811,32.9040461 0.404255319,29.2968085 C0.831212477,27.5572788 1.93984173,26.0625583 3.48058317,25.1491188 C5.02132462,24.2356792 6.86469696,23.9802844 8.59574468,24.4404255 Z" id="Path" fill="#04242F"></path>
                <path d="M33.6382979,32.6787234 C32.1405666,34.233416 30.0747229,35.1117847 27.9159574,35.1117847 C25.757192,35.1117847 23.6913483,34.233416 22.193617,32.6787234 C19.0611076,29.4069136 19.0611076,24.2484055 22.193617,20.9765957 C23.6913483,19.4219031 25.757192,18.5435345 27.9159574,18.5435345 C30.0747229,18.5435345 32.1405666,19.4219031 33.6382979,20.9765957 C36.7768193,24.2459892 36.7768193,29.40933 33.6382979,32.6787234 Z" id="Path" fill="#E54332"></path>
                <path d="M43.5734043,11.8723404 C42.3339336,13.1573713 40.6252765,13.8832502 38.8398936,13.8832502 C37.0545108,13.8832502 35.3458536,13.1573713 34.106383,11.8723404 C31.513323,9.15848931 31.513323,4.88512771 34.106383,2.1712766 C35.3458536,0.886245711 37.0545108,0.160366848 38.8398936,0.160366848 C40.6252765,0.160366848 42.3339336,0.886245711 43.5734043,2.1712766 C46.1664643,4.88512771 46.1664643,9.15848931 43.5734043,11.8723404 Z" id="Path" fill="#28C66F"></path>
                <g id="Group" opacity="0.5" transform="translate(32.936170, 2.510638)" fill="#EAEDEF">
                    <path d="M0.678723404,3.5106383 C0.86221317,4.14095247 1.29252948,4.67042367 1.8720193,4.97889734 C2.45150911,5.287371 3.13103247,5.34868898 3.75638298,5.14893617 C5.07935435,4.74275099 5.84087155,3.35958711 5.47659574,2.02446809 C5.29596025,1.39226658 4.8660927,0.860653649 4.28570035,0.551699545 C3.70530799,0.24274544 3.02425852,0.182995702 2.39893617,0.386170213 C1.0759648,0.792355396 0.314447604,2.17551928 0.678723404,3.5106383 L0.678723404,3.5106383 Z" id="Path"></path>
                </g>
                <path d="M43.6319149,50.9340426 C42.3924442,52.2190734 40.6837871,52.9449523 38.8984043,52.9449523 C37.1130214,52.9449523 35.4043643,52.2190734 34.1648936,50.9340426 C31.5643708,48.2186573 31.5643708,43.9366619 34.1648936,41.2212766 C35.4043643,39.9362457 37.1130214,39.2103668 38.8984043,39.2103668 C40.6837871,39.2103668 42.3924442,39.9362457 43.6319149,41.2212766 C46.2324377,43.9366619 46.2324377,48.2186573 43.6319149,50.9340426 Z" id="Path" fill="#28C66F"></path>
                <g id="Group" opacity="0.5" transform="translate(32.936170, 42.297872)" fill="#EAEDEF">
                    <path d="M1.05319149,4.32978723 C1.23382699,4.96198874 1.66369453,5.49360167 2.24408689,5.80255577 C2.82447924,6.11150988 3.50552871,6.17125962 4.13085106,5.96808511 C5.45382244,5.56189992 6.21533963,4.17873604 5.85106383,2.84361702 C5.67540223,2.20410312 5.24639529,1.66395782 4.66324833,1.34808655 C4.08010137,1.03221528 3.39331414,0.967972067 2.76170213,1.17021277 C1.42160836,1.57605862 0.659091658,2.98619225 1.05319149,4.32978723 L1.05319149,4.32978723 Z" id="Path"></path>
                </g>
                <g id="Group" opacity="0.2" transform="translate(1.340426, 25.914894)" fill="#EAEDEF">
                    <path d="M1.08829787,4.17765957 C1.26420499,4.81443444 1.69138718,5.3523565 2.27176821,5.66792489 C2.85214924,5.98349328 3.53587056,6.04959861 4.16595745,5.85106383 C5.492324,5.43005286 6.24034543,4.02751268 5.85106383,2.69148936 C5.6726235,2.06562311 5.24870709,1.53849605 4.6756905,1.22994865 C4.1026739,0.921401258 3.42924686,0.857651076 2.80851064,1.05319149 C1.48553927,1.45937667 0.724022072,2.84254055 1.08829787,4.17765957 L1.08829787,4.17765957 Z" id="Path"></path>
                </g>
                <g id="Group" opacity="0.2" transform="translate(21.234043, 21.234043)" fill="#EAEDEF">
                    <path d="M0.912765957,3.5106383 C1.09049227,4.14475064 1.51990367,4.67854774 2.10121975,4.98799356 C2.68253584,5.29743938 3.36514251,5.35559107 3.99042553,5.14893617 C5.31759286,4.7479229 6.08152824,3.36036682 5.7106383,2.02446809 C5.52714853,1.39415392 5.09683222,0.864682709 4.51734241,0.556209044 C3.93785259,0.247735378 3.25832924,0.186417408 2.63297872,0.386170213 C1.31000735,0.792355396 0.548490157,2.17551928 0.912765957,3.5106383 L0.912765957,3.5106383 Z" id="Path"></path>
                </g>
                <path d="M52.0457447,10.7021277 C52.5123396,12.3168886 53.6131898,13.6737478 55.0971219,14.4631203 C56.5810541,15.2524928 58.3214719,15.4070362 59.9212766,14.8914894 C63.3306337,13.8484006 65.2805096,10.2710282 64.3095745,6.84042553 C63.8401386,5.22754731 62.738842,3.87282011 61.2558076,3.08392515 C59.7727732,2.29503019 58.0338738,2.13892505 56.4340426,2.65106383 C53.0289304,3.69935111 51.0814789,7.27227541 52.0457447,10.7021277 L52.0457447,10.7021277 Z" id="Path" fill="#04242F"></path>
                <g id="Group" opacity="0.2" transform="translate(54.000000, 4.851064)" fill="#EAEDEF">
                    <path d="M0.117021277,3.93191489 C0.499073413,5.14802777 1.7840838,5.83475397 3.00744681,5.47659574 C4.27910107,5.11826321 5.02539303,3.80311933 4.68085106,2.52765957 C4.29387825,1.31624445 3.01037567,0.635520412 1.79042553,0.994680851 C0.52036111,1.34769903 -0.22692142,2.65936277 0.117021277,3.93191489 L0.117021277,3.93191489 Z" id="Path"></path>
                </g>
            </g>
        </g>
    </g>
</svg>