<?xml version="1.0" encoding="UTF-8"?>
<svg width="89px" height="55px" viewBox="0 0 89 55" version="1.1" xmlns="http://www.w3.org/2000/svg" xmlns:xlink="http://www.w3.org/1999/xlink">
    <title>93B1C6D2-F6FE-4779-B11D-2399029AE046</title>
    <defs>
        <linearGradient x1="-2.76798884e-14%" y1="49.9264057%" x2="100%" y2="49.9264057%" id="linearGradient-1">
            <stop stop-color="#000000" offset="0%"></stop>
            <stop stop-color="#000000" offset="100%"></stop>
        </linearGradient>
        <linearGradient x1="-1.15273775%" y1="50.3610008%" x2="98.8472622%" y2="50.3610008%" id="linearGradient-2">
            <stop stop-color="#000000" offset="0%"></stop>
            <stop stop-color="#000000" offset="100%"></stop>
        </linearGradient>
        <linearGradient x1="-820.731707%" y1="-717.028554%" x2="1308.53659%" y2="1159.45866%" id="linearGradient-3">
            <stop stop-color="#F9CFBF" offset="0%"></stop>
            <stop stop-color="#E293D3" offset="100%"></stop>
        </linearGradient>
        <linearGradient x1="45.1347835%" y1="45.6355893%" x2="84.882526%" y2="81.028013%" id="linearGradient-4">
            <stop stop-color="#F9CFBF" offset="0%"></stop>
            <stop stop-color="#E293D3" offset="100%"></stop>
        </linearGradient>
    </defs>
    <g id="web" stroke="none" stroke-width="1" fill="none" fill-rule="evenodd">
        <g id="home-v4" transform="translate(-543.000000, -1812.000000)" fill-rule="nonzero">
            <g id="Recurso-2" transform="translate(543.000000, 1812.000000)">
                <path d="M59,4.16 C56.9135726,3.10002805 54.4464274,3.10002805 52.36,4.16 L2.56,32.9 L1,31.45 L1,34.77 C1,35.6670386 1.53508374,36.477592 2.36,36.83 L30.9,53.31 C32.9887248,54.3603338 35.4512752,54.3603338 37.54,53.31 L87.54,24.46 C88.3108004,24.1154827 88.8349235,23.3809453 88.91,22.54 L88.91,22.54 L88.91,19.18 L87.19,20.43 L59,4.16 Z" id="Path" fill="#A8A296"></path>
                <path d="M86.67,20.17 C84.6,21.17 82.82,22.67 80.85,23.82 C78.59,25.14 76.35,26.52 74.05,27.82 C71.75,29.12 69.46,30.15 67.2,31.38 C64.94,32.61 62.94,34.14 60.69,35.33 C58.69,36.39 56.53,37.14 54.46,38.07 C52.6635553,38.9323174 50.9381693,39.9354488 49.3,41.07 C47.41,42.29 45.3,43.25 43.52,44.57 C42.11,45.57 40.93,47 39.16,47.42 C38.626372,47.5457838 38.0756895,47.5829464 37.53,47.53 C37.74,49.4 37.89,51.28 37.93,53.16 L87.5,24.48 C88.2737429,24.1337723 88.7984079,23.3946457 88.87,22.55 L88.87,22.55 L88.87,19.19 L87.15,20.45 L86.67,20.17 Z" id="Path" fill="url(#linearGradient-1)" opacity="0.3" style="mix-blend-mode: color-burn;"></path>
                <path d="M87.5,17.26 L59,0.79 C56.9112752,-0.260333845 54.4487248,-0.260333845 52.36,0.79 L2.36,29.64 C0.53,30.69 0.53,32.41 2.36,33.47 L30.9,49.94 C32.9864274,50.9999719 35.4535726,50.9999719 37.54,49.94 L87.54,21.1 C89.33,20 89.33,18.32 87.5,17.26 Z" id="Path" fill="#D3CFC7"></path>
                <path d="M82.68,18.23 L57.3,3.57 C56.254338,3.05033931 55.025662,3.05033931 53.98,3.57 L12.25,27.67 C11.8316808,27.7999224 11.5466058,28.1869695 11.5466058,28.625 C11.5466058,29.0630305 11.8316808,29.4500776 12.25,29.58 L37.63,44.24 C38.675662,44.7596607 39.904338,44.7596607 40.95,44.24 L82.68,20.14 C83.0983192,20.0100776 83.3833942,19.6230305 83.3833942,19.185 C83.3833942,18.7469695 83.0983192,18.3599224 82.68,18.23 Z" id="Path" fill="#B52325"></path>
                <path d="M72.36,9.53 C71.804862,9.25799406 71.155138,9.25799406 70.6,9.53 C70.3967888,9.61289421 70.2639608,9.81053196 70.2639608,10.03 C70.2639608,10.249468 70.3967888,10.4471058 70.6,10.53 C71.155138,10.8020059 71.804862,10.8020059 72.36,10.53 C72.5632112,10.4471058 72.6960392,10.249468 72.6960392,10.03 C72.6960392,9.81053196 72.5632112,9.61289421 72.36,9.53 L72.36,9.53 Z" id="Path" fill="#342F33"></path>
                <path d="M69.27,8.25 C68.9896837,8.11070743 68.6603163,8.11070743 68.38,8.25 C68.2714728,8.28776799 68.1987412,8.39008881 68.1987412,8.505 C68.1987412,8.61991119 68.2714728,8.72223201 68.38,8.76 C68.6603163,8.89929257 68.9896837,8.89929257 69.27,8.76 C69.3785272,8.72223201 69.4512588,8.61991119 69.4512588,8.505 C69.4512588,8.39008881 69.3785272,8.28776799 69.27,8.25 Z" id="Path" fill="#342F33"></path>
                <path d="M22,37.47 C20.5091564,36.7193547 18.7508436,36.7193547 17.26,37.47 L17.26,37.47 L16.26,37.47 L16.26,38.81 C16.3214172,39.4137656 16.7036856,39.9374733 17.26,40.18 C18.7508436,40.9306453 20.5091564,40.9306453 22,40.18 C22.5605039,39.9427287 22.9448651,39.4161538 23,38.81 L23,38.81 L23,37.5 L22,37.5 L22,37.47 Z" id="Path" fill="#89847A"></path>
                <path d="M21.73,38.72 L21.68,38.72 C21.5197661,38.8044255 21.3524635,38.8746926 21.18,38.93 C21.0194423,38.9858851 20.8558467,39.0326267 20.69,39.07 C20.3111299,39.1663533 19.9207999,39.2100972 19.53,39.2 C19.53,39.71 19.53,40.2 19.53,40.73 C20.3845441,40.7744099 21.2358955,40.595178 22,40.21 C22.5605039,39.9727287 22.9448651,39.4461538 23,38.84 L23,38.84 L23,37.5 L22.86,37.5 C22.726979,38.078622 22.2967532,38.5431136 21.73,38.72 Z" id="Path" fill="url(#linearGradient-2)" opacity="0.3" style="mix-blend-mode: color-burn;"></path>
                <path d="M22,36.13 C20.5114754,35.3696552 18.7485246,35.3696552 17.26,36.13 C15.96,36.88 15.96,38.13 17.26,38.86 C18.7485246,39.6203448 20.5114754,39.6203448 22,38.86 C23.29,38.11 23.29,36.88 22,36.13 Z" id="Path" fill="#A8A296"></path>
                <path d="M14.52,41.43 L2.63,34.56 C2.23,34.33 1.9,34.56 1.9,34.99 C1.93021807,35.5018596 2.20097578,35.9691948 2.63,36.25 L14.52,43.12 C14.93,43.35 15.25,43.12 15.25,42.69 C15.224596,42.1767056 14.9526634,41.7073425 14.52,41.43 Z" id="Path" fill="#6D685F"></path>
                <path d="M31,50.87 L19.07,44 C18.67,43.76 18.34,44 18.34,44.42 C18.3717814,44.9340657 18.6417883,45.4038037 19.07,45.69 L31,52.56 C31.4,52.79 31.73,52.56 31.73,52.14 C31.7028876,51.624544 31.4317631,51.1528616 31,50.87 L31,50.87 Z" id="Path" fill="#6D685F"></path>
                <polygon id="Path" fill="#E8E4DD" points="39.57 52.15 41.31 51.13 41.31 47.76 39.57 48.77"></polygon>
                <polygon id="Path" fill="#E8E4DD" points="42.25 50.61 44 49.59 44 46.22 42.25 47.23"></polygon>
                <polygon id="Path" fill="#E8E4DD" points="81.2 28.11 82.94 27.08 82.94 23.71 81.2 24.73"></polygon>
                <polygon id="Path" fill="#E8E4DD" points="83.88 26.57 85.63 25.54 85.63 22.17 83.88 23.18"></polygon>
                <path d="M32.29,18.54 L32.5,19.54 C33.41,19.89 33.9,20.09 34.04,20.17 C35.04,20.72 35.35,21.45 34.68,21.83 C33.79,22.35 31.85,22.11 28.45,20.83 L27.05,22.2 C31.94,24.04 35.19,24.14 37.13,23.02 C39.07,21.9 38.44,20.49 36.13,19.14 C37.13,18.7 38.13,18.29 38.9,17.96 C40.034609,18.4370261 41.1428621,18.9744621 42.22,19.57 L44.14,18.47 C42.355193,17.5045457 40.4998979,16.675513 38.59,15.99 L32.29,18.54 Z" id="Path" fill="#F9EED2"></path>
                <path d="M36.58,25.27 C35.94,25.64 35.24,25.94 34.58,26.27 L36.74,27.74 C37.4777409,27.5233957 38.1837939,27.2107151 38.84,26.81 C39.2485535,26.5813705 39.6195494,26.2913192 39.94,25.95 L37.88,24.5 C37.47,24.75 37,25 36.58,25.27 Z" id="Path" fill="#F9EED2"></path>
                <path d="M54.76,24.65 C52.76,23.5 49.19,23.82 46.66,24.15 L47.18,25.86 C49.61,25.51 51.75,25.34 52.66,25.86 C53.18,26.16 53.03,26.54 52.45,26.86 C51.21,27.58 44.91,28.25 40.11,28 L39.34,29.31 C41.1932272,29.7778562 42.9780682,30.4837255 44.65,31.41 C45.21,31.73 45.78,32.1 46.38,32.5 L48.56,31.5 C47.966356,31.028827 47.3302998,30.6137166 46.66,30.26 C46.1779331,29.9555455 45.6608545,29.7104369 45.12,29.53 C49.41,29.37 53.36,28.76 54.55,28.08 C56.2,27.12 56.68,25.76 54.76,24.65 Z" id="Path" fill="#F9EED2"></path>
                <path d="M63.53,14.64 L63.6,15.1 L64.35,15.04 C63.89,15.27 63.42,15.52 62.97,15.78 C62.52,16.04 62.19,16.25 61.83,16.49 L62.52,16.97 C63.07,16.58 63.63,16.24 64.17,15.97 C64.8178546,15.6002996 65.4855269,15.2664634 66.17,14.97 L65.54,14.42 C64.88,14.46 64.19,14.57 63.53,14.64 Z" id="Path" fill="#F9EED2"></path>
                <path d="M68.57,16.1 C68.0504276,15.8404165 67.4805573,15.6970958 66.9,15.68 L66.72,16.2 C67.1198503,16.2107697 67.5138062,16.2990702 67.88,16.46 C68,16.53 68.04,16.63 67.88,16.71 C67.1745372,16.8245216 66.4511404,16.7414521 65.79,16.47 L65.4,16.92 C65.5834396,16.9758147 65.7609575,17.0495014 65.93,17.14 C66.29,17.34 66.27,17.57 66.07,17.68 C65.7084824,17.7706684 65.326021,17.7206268 65,17.54 C64.8213266,17.4424147 64.6565283,17.3213383 64.51,17.18 L63.98,17.6 C64.139013,17.7869378 64.3283169,17.9458179 64.54,18.07 C65.2639125,18.4012189 66.0960875,18.4012189 66.82,18.07 C66.973269,18.0094816 67.0913279,17.8834299 67.1416907,17.7265304 C67.1920535,17.5696309 67.1694133,17.3984165 67.08,17.26 C67.6061158,17.3613136 68.1501113,17.3128045 68.65,17.12 C69.15,16.81 69.08,16.39 68.57,16.1 Z" id="Path" fill="#F9EED2"></path>
                <path d="M67,18.8 C66.79,18.92 66.56,19.02 66.34,19.12 L67.05,19.6 C67.2927438,19.5323255 67.5249486,19.431367 67.74,19.3 C67.8691739,19.2191008 67.9897934,19.1252857 68.1,19.02 L67.42,18.55 L67,18.8 Z" id="Path" fill="#F9EED2"></path>
                <path d="M72.94,18.6 C72.0904517,18.2941858 71.1716603,18.2352444 70.29,18.43 L70.46,19 C71.0497999,18.8435384 71.6702001,18.8435384 72.26,19 C72.43,19.09 72.38,19.22 72.19,19.33 C70.8845079,19.6634225 69.5345013,19.7882981 68.19,19.7 L67.94,20.13 C68.5482745,20.2810664 69.1335054,20.5131408 69.68,20.82 C69.86,20.92 70.05,21.04 70.25,21.17 L70.96,20.84 C70.7664038,20.6874217 70.5588131,20.5534922 70.34,20.44 C70.1832564,20.3344202 70.0112606,20.253481 69.83,20.2 C70.879377,20.2108642 71.9233694,20.0486906 72.92,19.72 C73.42,19.41 73.57,19 72.94,18.6 Z" id="Path" fill="#F9EED2"></path>
                <path d="M75.67,20.08 C74.9385563,19.7353939 74.0914437,19.7353939 73.36,20.08 C73.0835664,20.1884635 72.9094827,20.4637587 72.93,20.76 C72.4586067,20.727974 71.9868843,20.8174979 71.56,21.02 C70.91,21.4 71.01,21.96 71.63,22.31 C72.3424574,22.6456005 73.1675426,22.6456005 73.88,22.31 C74.28,22.08 74.34,21.77 74.21,21.51 C74.7204032,21.5730122 75.2381136,21.486148 75.7,21.26 C75.9351459,21.1542693 76.083888,20.9177649 76.0773353,20.6600254 C76.0707826,20.4022859 75.9102148,20.1736452 75.67,20.08 L75.67,20.08 Z M73.14,22 C72.8647799,22.1457835 72.5352201,22.1457835 72.26,22 C72.01,21.86 71.97,21.63 72.26,21.47 C72.5730408,21.3280415 72.9222604,21.2861352 73.26,21.35 C73.33,21.53 73.44,21.8 73.14,22 Z M75,20.9 C74.6354345,21.014426 74.2445655,21.014426 73.88,20.9 C73.8381316,20.7141092 73.9235955,20.5228327 74.09,20.43 C74.3838054,20.2735552 74.7361946,20.2735552 75.03,20.43 C75.29,20.59 75.14,20.82 75,20.9 Z" id="Shape" fill="#F9EED2"></path>
                <path d="M59.79,18.08 C58.9350364,17.7824752 58.0144627,17.7271024 57.13,17.92 L57.3,18.48 C57.8904302,18.3284495 58.5095698,18.3284495 59.1,18.48 C59.27,18.58 59.22,18.7 59.03,18.81 C57.7247099,19.14459 56.3745168,19.2694828 55.03,19.18 L54.78,19.61 C55.3860579,19.7679076 55.9704312,19.9996418 56.52,20.3 C56.7,20.4 56.89,20.53 57.08,20.66 L57.8,20.32 C57.6003857,20.1709729 57.389785,20.0372582 57.17,19.92 C57.012404,19.8223343 56.8447765,19.7418731 56.67,19.68 C57.7197363,19.6959395 58.7645667,19.5336358 59.76,19.2 C60.26,18.89 60.42,18.45 59.79,18.08 Z" id="Path" fill="#F9EED2"></path>
                <path d="M59.45,20.13 L59.52,20.48 C59.6912677,20.5345327 59.8583698,20.6013735 60.02,20.68 C60.34,20.86 60.45,21.1 60.23,21.23 C60.01,21.36 59.31,21.32 58.23,20.91 L57.77,21.35 C59.38,21.96 60.44,21.99 61.07,21.62 C61.7,21.25 61.5,20.79 60.74,20.35 L61.65,19.96 C62.0194823,20.1166501 62.3800313,20.2935862 62.73,20.49 L63.36,20.13 C62.7756061,19.8125022 62.167047,19.54166 61.54,19.32 L59.45,20.13 Z" id="Path" fill="#F9EED2"></path>
                <path d="M60.86,22.34 C60.65,22.46 60.42,22.56 60.2,22.66 L60.91,23.14 C61.1527438,23.0723255 61.3849486,22.971367 61.6,22.84 C61.7291739,22.7591008 61.8497934,22.6652857 61.96,22.56 L61.28,22.09 L60.86,22.34 Z" id="Path" fill="#F9EED2"></path>
                <path d="M66.61,22.05 C65.84,21.6 64.22,22.05 63.17,22.65 C62.12,23.25 62.06,23.79 62.81,24.22 C63.8570862,24.4978148 64.9720784,24.3390457 65.9,23.78 C66.9,23.2 67.44,22.52 66.61,22.05 Z M65.15,23.35 C64.6449237,23.68951 64.0485349,23.8673804 63.44,23.86 C63.16,23.7 63.38,23.39 63.92,23.08 C64.67,22.64 65.69,22.24 65.98,22.41 C66.27,22.58 65.82,23 65.15,23.35 Z" id="Shape" fill="#F9EED2"></path>
                <path d="M69.27,23.55 C68.0769165,23.5841999 66.9045726,23.8704699 65.83,24.39 C64.99,24.88 64.83,25.45 65.52,25.87 C66.345582,26.2139494 67.2841049,26.1548299 68.06,25.71 C68.74,25.32 68.59,24.87 68.16,24.62 C67.9562318,24.5165028 67.741577,24.4360072 67.52,24.38 C68.3594269,24.1867549 69.218647,24.0927777 70.08,24.1 L69.27,23.55 Z M67.27,25.36 C66.949377,25.5658529 66.5545866,25.6206849 66.19,25.51 C65.93,25.36 66.11,25.08 66.59,24.81 L66.76,24.72 C66.9801393,24.7469484 67.1955051,24.804155 67.4,24.89 C67.56,25 67.56,25.18 67.23,25.36 L67.27,25.36 Z" id="Shape" fill="#F9EED2"></path>
                <path d="M49.29,10.3 C45.93,11.65 47.22,13.72 48.48,14.51 C49.74,15.3 53.48,15.98 55.76,14.04 C57.124116,12.9089988 57.7416577,11.1104085 57.36,9.38 C57.36,9.38 52.64,9 49.29,10.3 Z" id="Path" fill="#F9EED2"></path>
                <g id="Group" style="mix-blend-mode: color-burn;" transform="translate(1.000000, 0.000000)">
                    <polygon id="Path" fill="url(#linearGradient-3)" opacity="0.3" style="mix-blend-mode: color-burn;" points="36.93 53.1 38.57 52.15 38.57 52.14 36.93 53.09"></polygon>
                    <path d="M86.5,17.27 L58,0.79 C55.9112752,-0.260333845 53.4487248,-0.260333845 51.36,0.79 L1.36,29.64 C0.531731836,29.9938292 -0.00405602698,30.8093298 -2.28688426e-05,31.71 L-2.28688426e-05,34.77 C-2.28688426e-05,35.6670386 0.535083737,36.477592 1.36,36.83 L29.9,53.31 C31.9887248,54.3603338 34.4512752,54.3603338 36.54,53.31 L36.93,53.09 L38.57,52.09 L38.57,52.09 L41.25,50.55 L41.25,50.55 L42.25,49.98 L82.88,26.56 L86.5,24.48 C87.1154814,24.1825509 87.5844044,23.6487002 87.8,23 C87.8037059,22.9367477 87.8037059,22.8732523 87.8,22.81 C87.8049411,22.7267399 87.8049411,22.6432601 87.8,22.56 L87.8,19.18 C87.7331059,18.358879 87.2393457,17.6334314 86.5,17.27 Z" id="Path" fill="url(#linearGradient-4)"></path>
                </g>
            </g>
        </g>
    </g>
</svg>