<?xml version="1.0" encoding="UTF-8"?>
<svg width="27px" height="70px" viewBox="0 0 27 70" version="1.1" xmlns="http://www.w3.org/2000/svg" xmlns:xlink="http://www.w3.org/1999/xlink">
    <title>591E9497-8ED0-47C9-BC70-6D33A2421E92</title>
    <defs>
        <linearGradient x1="49.9755029%" y1="26.5379771%" x2="50.1659982%" y2="109.739413%" id="linearGradient-1">
            <stop stop-color="#F9CFBF" offset="0%"></stop>
            <stop stop-color="#E293D3" offset="100%"></stop>
        </linearGradient>
        <linearGradient x1="44.6269376%" y1="-827%" x2="84.6806756%" y2="5892%" id="linearGradient-2">
            <stop stop-color="#F9CFBF" offset="0%"></stop>
            <stop stop-color="#E293D3" offset="100%"></stop>
        </linearGradient>
        <linearGradient x1="48.4642317%" y1="-276.126126%" x2="56.5913598%" y2="2750.9009%" id="linearGradient-3">
            <stop stop-color="#F9CFBF" offset="0%"></stop>
            <stop stop-color="#E293D3" offset="100%"></stop>
        </linearGradient>
        <linearGradient x1="48.8421684%" y1="-408.888889%" x2="56.7540179%" y2="2577.77778%" id="linearGradient-4">
            <stop stop-color="#F9CFBF" offset="0%"></stop>
            <stop stop-color="#E293D3" offset="100%"></stop>
        </linearGradient>
        <linearGradient x1="41.3791115%" y1="-1535%" x2="81.4328496%" y2="5177%" id="linearGradient-5">
            <stop stop-color="#F9CFBF" offset="0%"></stop>
            <stop stop-color="#E293D3" offset="100%"></stop>
        </linearGradient>
        <linearGradient x1="60.2576646%" y1="1204.5%" x2="100.311403%" y2="7933.5%" id="linearGradient-6">
            <stop stop-color="#F9CFBF" offset="0%"></stop>
            <stop stop-color="#E293D3" offset="100%"></stop>
        </linearGradient>
    </defs>
    <g id="web" stroke="none" stroke-width="1" fill="none" fill-rule="evenodd">
        <g id="home-v4" transform="translate(-333.000000, -1875.000000)" fill-rule="nonzero">
            <g id="Recurso-1" transform="translate(333.000000, 1875.000000)">
                <path d="M16.875,67.4390244 C16.4784375,68.8219512 17.128125,69.6073171 17.7609375,69.7609756 C18.39375,69.9146341 20.7478125,69.1890244 21.245625,67.7036585 C21.5861368,66.4994777 21.7843944,65.2587109 21.83625,64.0073171 L18.1659375,64.2292683 C17.656626,65.2648968 17.2250942,66.3378472 16.875,67.4390244 L16.875,67.4390244 Z" id="Path" fill="#231E22"></path>
                <path d="M10.125,61.6426829 C10.125,61.6426829 6.125625,63.7426829 6.04125,64.4682927 C5.956875,65.1939024 8.94375,65.654878 11.10375,64.6987805 C13.26375,63.7426829 15.001875,63.2390244 15.08625,62.445122 C15.1405404,61.9315458 15.1405404,61.4135762 15.08625,60.9 L10.125,61.6426829 Z" id="Path" fill="#231E22"></path>
                <path d="M21.279375,39.7292683 C20.570625,32.4219512 18.3346875,30.2621951 18.3346875,30.2621951 L13.5,29.9292683 C13.5,29.9292683 14.34375,44.5353659 14.799375,47.5573171 C15.255,50.5792683 17.769375,63.9390244 17.769375,63.9390244 C20.7309375,65.9109756 22.3846875,63.4097561 22.3846875,63.4097561 C22.6777597,58.5093724 22.1063474,53.5953303 20.6971875,48.897561 C20.6971875,48.897561 21.9965625,47.0365854 21.279375,39.7292683 Z" id="Path" fill="#3E5068"></path>
                <path d="M14.14125,28.9731707 L10.125,28.0682927 L9.365625,47.8646341 L9.8803125,61.5231707 C10.845684,62.1945955 12.0822782,62.3232449 13.1625,61.8646341 C13.9105239,61.6039834 14.6136942,61.2266674 15.2465625,60.7463415 L14.6390625,46.5841463 L14.14125,28.9731707 Z" id="Path" fill="#3E5068"></path>
                <path d="M14.664375,46.5841463 L13.8459375,35.8536585 C13.8459375,35.8536585 13.6096875,43.254878 13.8459375,45.6707317 C14.0821875,48.0865854 14.3690625,61.2926829 14.3690625,61.2926829 C14.693793,61.1336929 15.0019044,60.9420792 15.28875,60.7207317 L14.985,53.695122 L14.664375,46.5841463 Z" id="Path" fill="#2C3B4C"></path>
                <path d="M9.14625,22.195122 L5.8471875,23.902439 L7.711875,26.8390244 L9.331875,26.2670732 L11.9221875,11.097561 C7.509375,12.3353659 9.14625,22.195122 9.14625,22.195122 Z" id="Path" fill="#E8D6AF"></path>
                <path d="M9.939375,14.5121951 C9.48375,17.2353659 9.2221875,30.7317073 9.2221875,30.7317073 L7.9228125,46.6353659 C7.9228125,46.6353659 8.53875,48.052439 10.749375,48.1207317 L10.395,28.35 L10.7915625,20.9146341 C10.7915625,20.9146341 11.4159375,13.752439 12.38625,11.7036585 L11.9221875,11.097561 C11.9221875,11.097561 10.395,11.8402439 9.939375,14.5121951 Z" id="Path" fill="#F9EED2"></path>
                <path d="M11.998125,12.702439 C10.8675,14.2902439 10.395,28.35 10.395,28.35 C12.2428125,30.2878049 16.16625,30.2622038 16.16625,30.2622038 L18.343125,14.6658537 C18.343125,14.6658537 13.12875,11.097561 11.998125,12.702439 Z" id="Path" fill="#7674A4"></path>
                <path d="M11.626875,22.4 C11.2690287,24.3048164 11.0490694,26.2335169 10.96875,28.1707317 C11.1508714,28.5346551 11.3902418,28.8662131 11.6775,29.152439 C12.1441156,28.9572493 12.5792438,28.692531 12.9684375,28.3670732 C13.095,28.1109756 13.2384375,18.5585366 14.1665625,16.2195122 L13.12875,15.852439 C13.12875,15.852439 12.2765625,18.7804878 11.626875,22.4 Z" id="Path" fill="#342F33"></path>
                <path d="M12.8334375,14.7 C12.7321875,15.2634146 13.2046875,16.4926829 13.854375,16.347561 C14.2828151,16.2076336 14.6382272,15.9002953 14.8415625,15.4939024 L14.225625,14.0256098 C14.225625,14.0256098 12.92625,14.145122 12.8334375,14.7 Z" id="Path" fill="#2A2220"></path>
                <path d="M17.4403125,10.7731707 C17.4403125,10.7731707 13.6771875,10.5256098 12.65625,11.3792683 C11.6353125,12.2329268 11.8125,15.4341463 11.8125,15.4341463 C12.1753125,15.195122 14.0484375,14.3158537 14.0484375,14.3158537 C14.6290531,15.1905518 15.2931785,16.0054391 16.03125,16.7487805 C16.2675,16.3134146 18.8240625,14.145122 19.0434375,12.9841463 C19.2628125,11.8231707 17.4403125,10.7731707 17.4403125,10.7731707 Z" id="Path" fill="#57578E"></path>
                <path d="M17.836875,2.28780488 L16.419375,4.84878049 L16.9846875,9.3902439 C18.781875,8.53658537 19.3303125,6.46219512 19.5159375,5.55731707 C19.5687867,4.60651183 19.3108245,3.66454247 18.781875,2.87682927 C18.5822498,2.53474083 18.228648,2.31433861 17.836875,2.28780488 Z" id="Path" fill="#604D3F"></path>
                <path d="M20.9925,25.4902439 C20.7646875,23.7829268 22.9415625,14.4353659 21.9375,13.9060976 C20.9334375,13.3768293 18.8746875,12.1987805 18.8746875,12.1987805 C18.6395381,13.0968786 18.2847223,13.9584367 17.82,14.7597561 C17.11125,15.9207317 16.4109375,17.1329268 15.8878125,21.8707317 C15.3646875,26.6085366 18.0984375,49.1878049 18.0984375,49.1878049 C23.0428125,48.9231707 23.6925,47.6085366 23.6925,47.6085366 C23.7013828,41.7535627 23.2016477,35.9091268 22.1990625,30.1426829 C21.9796875,28.7768293 21.2203125,27.197561 20.9925,25.4902439 Z" id="Path" fill="#F9EED2"></path>
                <path d="M15.845625,22.4085366 C16.1746875,21.1792683 18.2671875,18.9939024 18.2671875,18.9939024 L17.161875,17.8073171 L18.4865625,17.4573171 C19.3770404,16.1475967 20.1641625,14.7689423 20.840625,13.3341463 C20.2519379,12.8524718 19.5873506,12.4744318 18.8746875,12.2158537 C17.0027777,15.2875913 15.9584586,18.8016863 15.845625,22.4085366 L15.845625,22.4085366 Z" id="Path" fill="#E8D6AF"></path>
                <path d="M21.29625,26.9243902 C21.0619818,26.0460683 20.9735906,25.1344671 21.0346875,24.2268293 L19.98,21.2817073 C20.2298497,22.52679 20.3626296,23.7930085 20.3765625,25.0634146 C20.2753125,26.3097561 21.1528125,27.8890244 19.625625,29.8012195 C18.6894911,30.9613235 17.5958413,31.9815963 16.3771875,32.8317073 L16.7315625,36.6731707 C19.1374741,36.4312507 21.3073104,35.1046516 22.6378125,33.0621951 C22.6378125,33.0621951 22.24125,30.1085366 21.954375,29.1695122 C21.9375,29.1695122 21.6590625,27.9402439 21.29625,26.9243902 Z" id="Path" fill="#E8D6AF"></path>
                <path d="M18.8915625,32.2426829 L17.5584375,32.345122 C16.97625,32.345122 16.2,32.5756098 16.6134375,32.9256098 C16.8278215,33.0684527 17.0746531,33.1536548 17.330625,33.1731707 C16.723125,33.6 15.9384375,34.504878 16.014375,34.8121951 C16.0903125,35.1195122 15.7865625,35.2731707 16.1325,35.8536585 C16.3340373,36.1820859 16.738376,36.3184482 17.094375,36.1780488 C17.094375,36.1780488 17.2040625,36.2890244 17.5753125,36.2292683 C17.9465625,36.1695122 20.1825,35.2731707 20.6465625,34.2231707 C21.110625,33.1731707 18.8915625,32.2426829 18.8915625,32.2426829 Z" id="Path" fill="#FECC9B"></path>
                <path d="M10.1671875,14.947561 C10.1671875,14.947561 10.69875,15.5365854 10.715625,15.7414634 C10.483645,16.0136344 10.2233976,16.259766 9.939375,16.4756098 C9.939375,16.4756098 10.665,19.9585366 10.783125,21.0939024 C10.783125,21.0939024 11.4075,13.0780488 12.3946875,11.7036585 L11.9221875,11.097561 C11.2671182,12.3469964 10.6812141,13.6323131 10.1671875,14.947561 L10.1671875,14.947561 Z" id="Path" fill="#E8D6AF"></path>
                <path d="M16.6809375,9.21097561 L13.2384373,11.6012195 L13.2384373,12.454878 C13.2380756,13.1797409 13.7753902,13.7894819 14.4871875,13.8719512 C15.69375,14.1365854 17.769375,13.095122 17.6428125,12.2585366 C17.51625,11.4219512 17.2546875,9.30487805 17.2546875,9.30487805 L16.6809375,9.21097561 Z" id="Path" fill="#FECC9B"></path>
                <path d="M16.9678125,9.0402439 L13.2384375,11.6012195 L13.2384375,12.3353659 C14.9911053,12.4222926 16.6139457,11.4024801 17.31375,9.77439024 L17.2546875,9.27926829 L16.9678125,9.0402439 Z" id="Path" fill="#F6B07F"></path>
                <path d="M16.7146875,4.81463415 C15.4659375,3.67926829 11.5171875,4.73780488 11.0953125,5.52317073 C10.6734375,6.30853659 11.2725,9.22804878 11.5171875,9.79146341 C11.761875,10.354878 11.8884375,12.0621951 13.2046875,11.9170732 C14.3177218,11.7311757 15.3740117,11.2902663 16.2928125,10.6280488 C17.0690625,10.15 16.959375,9.64634146 16.959375,9.64634146 C16.959375,8.95487805 17.04375,7.39268293 17.060625,6.29146341 C17.124928,5.77309735 17.0020845,5.24867052 16.7146875,4.81463415 L16.7146875,4.81463415 Z" id="Path" fill="#FECC9B"></path>
                <path d="M16.993125,7.38414634 L16.993125,9.2195122 C17.0319804,9.28037224 17.098701,9.31713095 17.1703125,9.31713095 C17.241924,9.31713095 17.3086446,9.28037224 17.3475,9.2195122 C17.533125,8.98902439 18.039375,7.82804878 17.735625,7.45243902 C17.538459,7.24791244 17.2235125,7.21894471 16.993125,7.38414634 Z" id="Path" fill="#FECC9B"></path>
                <path d="M16.588125,5.01097561 C16.6831065,5.43944073 16.7256134,5.87810305 16.7146875,6.31707317 C16.6640625,6.80365854 16.5628125,8.14390244 16.824375,8.12682927 C17.0859375,8.1097561 17.2040625,7.27317073 17.2546875,6.69268293 C17.3053125,6.11219512 16.7653125,3.58536585 16.588125,5.01097561 Z" id="Path" fill="#604D3F"></path>
                <path d="M15.3646875,0.853658537 C13.7571816,0.687931567 12.2015641,1.48487801 11.3821875,2.89390244 C10.4371875,4.19146341 10.0490625,4.07195122 10.0490625,4.07195122 C10.0490625,4.07195122 9.88875,5.8902439 12.8503125,6.08658537 C14.9596875,6.22317073 15.96375,5.60853659 16.3603125,5.23292683 C16.1915625,5.40365854 15.1453125,6.35121951 12.5128125,6.29146341 C12.5128125,6.29146341 15.980625,6.77804878 16.5796875,4.98536585 L16.5796875,4.98536585 C17.1540192,4.16077606 17.5770089,3.23835504 17.8284375,2.26219512 C17.3313588,1.36428223 16.3813963,0.821184491 15.3646875,0.853658537 Z" id="Path" fill="#604D3F"></path>
                <path d="M14.34375,1.4 C12.3271875,1.64756098 14.5884375,1.75853659 15.4828125,2.3304878 C16.3771875,2.90243902 18.1153125,3.00487805 17.330625,2.18536585 C16.503532,1.4802224 15.4055274,1.1915142 14.34375,1.4 Z" id="Path" fill="#8C7362"></path>
                <path d="M21.9375,13.9060976 C20.3765625,13.052439 19.7015625,19.0280488 19.98,21.2817073 C20.2584375,23.5353659 22.95,27.4536585 22.78125,27.7780488 C22.6125,28.102439 18.815625,32.097561 18.815625,32.097561 C19.1020816,33.1103401 19.8476299,33.9248612 20.82375,34.2914634 C20.82375,34.2914634 25.88625,29.4682927 26.1225,28.5036585 C26.35875,27.5390244 24.84,19.6341463 24.1903125,17.5 C23.7418888,16.1333173 22.9682477,14.8991309 21.9375,13.9060976 L21.9375,13.9060976 Z" id="Path" fill="#F9EED2"></path>
                <polygon id="Path" fill="#342F33" points="0 20.7012195 5.416875 31.5341463 13.2384375 35.4353659 7.9228125 25.0378049"></polygon>
                <polygon id="Path" fill="#514850" points="0 20.7012195 7.9228125 25.0378049 8.26875 24.85 0.3290625 20.4792683"></polygon>
                <polygon id="Path" fill="#231E22" points="7.9228125 25.0378049 13.2384375 35.4353659 13.618125 35.1878049 8.26875 24.85"></polygon>
                <path d="M5.0625,26.7365854 C4.4223122,26.6985924 3.78039285,26.7707544 3.1640625,26.95 L2.818125,26.2670732 C2.49328104,26.9332217 2.37000565,27.6815601 2.46375,28.4182927 C2.6915625,29.3914634 3.391875,30.4756098 3.8559375,30.4243902 C4.32,30.3731707 5.585625,29.5707317 5.5434375,28.845122 C5.50125,28.1195122 5.7121875,26.8731707 5.0625,26.7365854 Z" id="Path" fill="#FECC9B"></path>
                <g id="Group" style="mix-blend-mode: color-burn;">
                    <path d="M22.0303125,14 C22.0094493,13.9702529 21.9837768,13.9442789 21.954375,13.9231707 L21.954375,13.9231707 L20.8575,13.3256098 C20.2774802,12.8424446 19.6176527,12.4667524 18.9084375,12.2158537 L18.9084375,12.2158537 C18.5563981,11.6284152 18.0628986,11.1408684 17.4740625,10.7987805 L17.4740625,10.7987805 C17.431875,10.4402439 17.38125,10.0902439 17.3475,9.81707317 L17.3475,9.74878049 C17.3475,9.74878049 17.3475,9.69756098 17.3475,9.67195122 C17.3475,9.64634146 17.3475,9.5695122 17.3475,9.53536585 L17.3475,9.53536585 C17.3475,9.53536585 17.3475,9.47560976 17.3475,9.44146341 C17.3438767,9.41884677 17.3438767,9.39578737 17.3475,9.37317073 L17.3475,9.37317073 L17.3475,9.37317073 L17.4571875,9.31341463 L17.4571875,9.31341463 C18.6297798,8.44818649 19.4059828,7.13932252 19.60875,5.68536585 C19.6615992,4.73456061 19.403637,3.79259125 18.8746875,3.00487805 C18.6864771,2.65439857 18.3388822,2.42101299 17.9465625,2.38170732 C17.463786,1.39733619 16.4493795,0.796973067 15.3646875,0.853658537 C13.7579847,0.692291698 12.2045624,1.48811349 11.3821875,2.89390244 C10.445625,4.19146341 10.0490625,4.07195122 10.0490625,4.07195122 C10.0504459,4.74275512 10.4399566,5.35058102 11.0446875,5.62560976 C10.7240625,6.54756098 11.2809375,9.23658537 11.5171875,9.78292683 C11.626875,10.0560976 11.7196875,10.5768293 11.9221875,11.0378049 L11.9221875,11.0378049 C7.509375,12.3268293 9.14625,22.1353659 9.14625,22.1353659 L6.21,23.7146341 L0.3290625,20.4878049 L0,20.7012195 L2.784375,26.2670732 C2.45953104,26.9332217 2.33625565,27.6815601 2.43,28.4182927 C2.6578125,29.3914634 3.358125,30.4756098 3.8221875,30.4243902 C4.12904061,30.3546487 4.41705112,30.2176941 4.6659375,30.0231707 L5.416875,31.5341463 L9.01125,33.2926829 L7.9228125,46.6353659 C8.23522689,47.2229721 8.76197235,47.6640186 9.3909375,47.8646341 L9.3909375,47.8646341 L9.905625,61.5231707 C9.96758553,61.5673734 10.0324199,61.6073013 10.0996875,61.6426829 C10.0996875,61.6426829 6.091875,63.7426829 6.0075,64.4682927 C5.923125,65.1939024 8.91,65.654878 11.07,64.6987805 C13.23,63.7426829 14.968125,63.2390244 15.0525,62.445122 C15.1089247,61.9345175 15.1089247,61.419141 15.0525,60.9085366 L15.238125,60.7719512 L15.238125,60.7719512 L15.238125,60.7719512 L14.934375,53.7378049 L14.630625,46.6268293 C14.6728125,47.0109756 14.715,47.3353659 14.74875,47.5743902 C15.204375,50.604878 17.7440625,63.9560976 17.7440625,63.9560976 C17.8789493,64.0507862 18.0198823,64.136339 18.1659375,64.2121951 C17.6558417,65.2533426 17.2242987,66.3320281 16.875,67.4390244 C16.4784375,68.8219512 17.128125,69.6073171 17.7609375,69.7609756 C18.39375,69.9146341 20.7478125,69.1890244 21.2540625,67.7036585 C21.589207,66.4985692 21.7845839,65.2581101 21.83625,64.0073171 C22.0333945,63.8457893 22.2092088,63.6593031 22.359375,63.452439 C22.6467163,58.5522214 22.0754225,53.6391974 20.671875,48.9402439 L20.671875,48.9402439 C23.2453125,48.4621951 23.6503125,47.6512195 23.6503125,47.6512195 C23.689418,42.7761744 23.3395319,37.9058891 22.6040625,33.0878049 L22.6040625,33.0878049 C22.6040625,33.0878049 22.6040625,32.9597561 22.6040625,32.8402439 C22.6040625,32.7207317 22.6040625,32.7804878 22.6040625,32.7463415 L22.6040625,32.695122 L22.6040625,32.695122 C24.0975,31.2012195 26.02125,29.195122 26.15625,28.6060976 C26.375625,27.6414634 24.856875,19.7536585 24.2071875,17.602439 C23.7840473,16.2394066 23.0365312,15.0023668 22.0303125,14 Z M21.886875,28.845122 L21.886875,28.845122 C21.70125,28.2304878 21.4734375,27.5902439 21.29625,26.9158537 L21.29625,26.9158537 C21.2044508,26.6874875 21.1365794,26.4500095 21.09375,26.2073171 C21.043125,25.9768293 21.0009375,25.7292683 20.9671875,25.4902439 C20.9277606,25.098574 20.9277606,24.703865 20.9671875,24.3121951 C20.9671875,24.3121951 20.9671875,24.3121951 20.9671875,24.2695122 L20.9671875,24.2695122 C21.8109375,25.9768293 22.8234375,27.6073171 22.730625,27.8121951 C22.4724669,28.1751634 22.190587,28.5202436 21.886875,28.845122 L21.886875,28.845122 Z" id="Shape" fill="url(#linearGradient-1)"></path>
                    <path d="M21.29625,26.9243902 C21.22875,26.6853659 21.1696875,26.4463415 21.1190625,26.2073171 C21.1531286,26.4519624 21.2125174,26.6923073 21.29625,26.9243902 L21.29625,26.9243902 Z" id="Path" fill="url(#linearGradient-2)"></path>
                    <path d="M21.02625,24.3121951 C20.9868231,24.703865 20.9868231,25.098574 21.02625,25.4902439 C21.02625,25.7292683 21.1021875,25.9768293 21.1528125,26.2073171 C21.0537036,25.5808236 21.0113402,24.946483 21.02625,24.3121951 L21.02625,24.3121951 Z" id="Path" fill="url(#linearGradient-3)"></path>
                    <path d="M21.886875,28.8536585 L21.886875,28.8536585 C21.76875,28.4182927 21.5409375,27.6243902 21.29625,26.9329268 C21.4734375,27.5987805 21.70125,28.2390244 21.886875,28.8536585 Z" id="Path" fill="url(#linearGradient-4)"></path>
                    <path d="M22.5871875,32.5926829 L22.5871875,32.5926829 L22.5871875,32.6439024 C22.58324,32.6270628 22.58324,32.6095225 22.5871875,32.5926829 Z" id="Path" fill="url(#linearGradient-5)"></path>
                    <path d="M17.2209375,9.29634146 L17.2209375,9.29634146 C17.2557858,9.27598965 17.2871321,9.25004145 17.31375,9.2195122 L17.2040625,9.27926829 L17.2209375,9.29634146 Z" id="Path" fill="url(#linearGradient-6)"></path>
                </g>
            </g>
        </g>
    </g>
</svg>