<?xml version="1.0" encoding="UTF-8"?>
<svg width="20px" height="20px" viewBox="0 0 20 20" version="1.1" xmlns="http://www.w3.org/2000/svg" xmlns:xlink="http://www.w3.org/1999/xlink">
    <title>8A6F93B1-7183-4AD3-B3CF-A07A351241FA</title>
    <defs>
        <filter id="filter-1">
            <feColorMatrix in="SourceGraphic" type="matrix" values="0 0 0 0 1.000000 0 0 0 0 1.000000 0 0 0 0 1.000000 0 0 0 1.000000 0"></feColorMatrix>
        </filter>
    </defs>
    <g id="web" stroke="none" stroke-width="1" fill="none" fill-rule="evenodd">
        <g id="whatsapp-(2)" transform="translate(-1270.000000, -41.000000)" filter="url(#filter-1)">
            <g transform="translate(1270.000000, 41.000000)">
                <path d="M17.0445822,2.90435789 C15.1639598,1.03256227 12.6621653,0.00106811719 9.9995412,0 C7.34287371,0 4.83710815,1.03057859 2.94411419,2.90191648 C1.04776008,4.77645875 0.00244375529,7.26760863 0,9.90737914 L0,9.9104309 L0,9.91226195 C0.000305469411,11.5100098 0.420478635,13.1217957 1.21805929,14.5930481 L0.0273395221,20 L5.50180959,18.7559509 C6.88833523,19.4540405 8.43538505,19.8220825 9.9957228,19.8226929 L9.99969393,19.8226929 C12.6559032,19.8226929 15.1616688,18.7919617 17.0549682,16.9204712 C18.9530024,15.0444031 19.9987769,12.5564575 20,9.91500855 C20.0007625,7.29217531 18.9513223,4.80239867 17.0445822,2.90435789 Z M9.9995412,18.2617188 L9.99602829,18.2617188 C8.59499281,18.2611084 7.20678708,17.9096985 5.98170201,17.2451782 L5.72281668,17.1047973 L2.08253772,17.9319763 L2.87324528,14.3418884 L2.72081607,14.0792847 C1.96294644,12.7735901 1.56247606,11.3322449 1.56247606,9.91058352 C1.56537799,5.30899047 5.34983855,1.56097414 9.99923571,1.56097414 C12.2453523,1.56188965 14.3558405,2.4317932 15.9418376,4.01016234 C17.5518142,5.61294555 18.4381337,7.70980836 18.4373705,9.91455078 C18.4355372,14.5172119 14.650313,18.2617188 9.9995412,18.2617188 Z" id="Shape" fill="#000000" fill-rule="nonzero"></path>
                <path d="M7.18945632,5.77777778 L6.74938418,5.77777778 C6.59620227,5.77777778 6.34749254,5.83390852 6.1371166,6.05798115 C5.92658734,6.28220389 5.33333333,6.82415048 5.33333333,7.92635374 C5.33333333,9.028557 6.1562835,10.0935399 6.27097825,10.2431718 C6.38582637,10.3926536 7.85953126,12.7267311 10.1936002,13.6246726 C12.1334442,14.370881 12.5282824,14.2224498 12.9491876,14.1850793 C13.3702462,14.1478589 14.3078912,13.6432828 14.4992535,13.1202465 C14.6906159,12.5972102 14.6906159,12.1487648 14.6332685,12.0551135 C14.5757678,11.9617624 14.4225859,11.9057818 14.193043,11.7938205 C13.9633469,11.6817092 12.8378663,11.1306075 12.627337,11.0557165 C12.4168077,10.9811257 12.2637792,10.9437552 12.1105973,11.168128 C11.9574154,11.3920506 11.5064564,11.9101342 11.3724415,12.059616 C11.2385798,12.2092479 11.1045648,12.2280082 10.8748686,12.1158968 C10.6451724,12.0034853 9.91315003,11.7627535 9.03591917,10.9997359 C8.35311739,10.4058608 7.8793115,9.64854635 7.74529653,9.42432365 C7.61143488,9.20025098 7.73103636,9.0789846 7.84619109,8.96717342 C7.94938573,8.86691855 8.08876745,8.72974345 8.20361553,8.59902193 C8.31831028,8.4681503 8.35097071,8.37479919 8.42763829,8.22531737 C8.50415258,8.07583556 8.46581879,7.94496393 8.4084714,7.83300267 C8.35097071,7.7208913 7.91028524,6.61313501 7.70604271,6.17009252 L7.70619603,6.17009252 C7.53415392,5.79698829 7.35306498,5.78438139 7.18945632,5.77777778 L7.18945632,5.77777778 Z" id="Path" fill="#000000" fill-rule="nonzero"></path>
            </g>
        </g>
    </g>
</svg>