<?xml version="1.0" encoding="UTF-8"?>
<svg width="30px" height="30px" viewBox="0 0 24 24" version="1.1" xmlns="http://www.w3.org/2000/svg" xmlns:xlink="http://www.w3.org/1999/xlink">
    <title>05498762-89A5-49EC-83A9-1940B943E9C8</title>
    <g id="web" stroke="none" stroke-width="1" fill="none" fill-rule="evenodd">
        <g id="home-v4" transform="translate(-219.000000, -4526.000000)">
            <g id="facebook" transform="translate(219.000000, 4526.000000)">
                <path d="M18.9115754,24 L5.08842458,24 C2.27814659,24 0,21.7218252 0,18.911582 L0,5.08841796 C0,2.27817484 2.27814659,0 5.08842458,0 L18.9115754,0 C21.7218222,0 24,2.27817484 24,5.08841796 L24,18.911582 C24,21.7218252 21.7218222,24 18.9115754,24" id="fill" fill="#FFFFFF"></path>
                <path d="M10.7510756,10.3304834 L9,10.3304834 L9,12.4978625 L10.7510756,12.4978625 L10.7510756,19 L13.6681008,19 L13.6681008,12.4978625 L15.7891825,12.4978625 L16,10.3304834 L13.6681008,10.3304834 L13.6681008,9.42847747 C13.6681008,8.91121342 13.7799631,8.70601776 14.3177628,8.70601776 L16,8.70601776 L16,6 L13.7799631,6 C11.6803934,6 10.7682852,6.85498191 10.7682852,8.5008221 L10.7510756,10.3304834 Z" id="Path" fill="#04242F" fill-rule="nonzero"></path>
            </g>
        </g>
    </g>
</svg>