<?xml version="1.0" encoding="UTF-8"?>
<svg width="30px" height="30px" viewBox="0 0 24 24" version="1.1" xmlns="http://www.w3.org/2000/svg" xmlns:xlink="http://www.w3.org/1999/xlink">
    <title>603B3AA9-D591-443D-96CF-6B818F616E65</title>
    <g id="web" stroke="none" stroke-width="1" fill="none" fill-rule="evenodd">
        <g id="home-v4" transform="translate(-321.000000, -4526.000000)" fill-rule="nonzero">
            <g id="Group-4" transform="translate(219.000000, 4526.000000)">
                <g id="instagram" transform="translate(102.000000, 0.000000)">
                    <rect id="Rectangle" fill="#FFFFFF" x="0" y="0" width="24" height="24" rx="5"></rect>
                    <path d="M12.1638273,18.1621373 C9.30141152,18.1627888 6.83716859,16.1412826 6.2782443,13.3339589 C5.71932001,10.5266352 7.221398,7.71545028 9.86579837,6.61974174 C12.5101987,5.5240332 15.560346,6.44900142 17.1507519,8.82893027 C18.7411577,11.2088591 18.428828,14.3808395 16.4047854,16.4048692 C15.2828159,17.5339007 13.7555246,18.1667346 12.1638273,18.1621373 L12.1638273,18.1621373 Z M12.1638273,8.32766615 C10.6118217,8.32766615 9.21271925,9.262809 8.61920127,10.6968479 C8.02568329,12.1308869 8.35469576,13.7812619 9.45275433,14.878073 C10.5508129,15.9748841 12.2015577,16.3020171 13.6349161,15.7068644 C15.0682745,15.1117118 16.0018197,13.7115415 16.0000552,12.1595332 C15.9952413,10.0435429 14.2798166,8.33006704 12.1638273,8.32766615 L12.1638273,8.32766615 Z" id="Shape" fill="#04242F"></path>
                    <circle id="Oval" fill="#04242F" cx="18.972973" cy="4.7027027" r="1.13513514"></circle>
                </g>
            </g>
        </g>
    </g>
</svg>