<?xml version="1.0" encoding="UTF-8"?>
<svg width="226px" height="29px" viewBox="0 0 226 29" version="1.1" xmlns="http://www.w3.org/2000/svg" xmlns:xlink="http://www.w3.org/1999/xlink">
    <title>334D8DBC-5201-4722-96E3-965B98A9A503</title>
    <defs>
        <filter id="filter-1">
            <feColorMatrix in="SourceGraphic" type="matrix" values="0 0 0 0 1.000000 0 0 0 0 1.000000 0 0 0 0 1.000000 0 0 0 1.000000 0"></feColorMatrix>
        </filter>
    </defs>
    <g id="web" stroke="none" stroke-width="1" fill="none" fill-rule="evenodd">
        <g id="home-v4" transform="translate(-169.000000, -4473.000000)">
            <g id="Group-3-Copy" transform="translate(169.000000, 4473.000000)">
                <g filter="url(#filter-1)" id="Group-5">
                    <g>
                        <path d="M14.4526144,0.852941176 C6.9537451,0.852941176 0.852941176,6.9537451 0.852941176,14.4526144 C0.852941176,21.9514837 6.9537451,28.0522876 14.4526144,28.0522876 C21.9514837,28.0522876 28.0522876,21.9514837 28.0522876,14.4526144 C28.0522876,6.9537451 21.9514837,0.852941176 14.4526144,0.852941176 M14.4526144,28.9052288 C6.4834902,28.9052288 0,22.4217386 0,14.4526144 C0,6.4834902 6.4834902,0 14.4526144,0 C22.4217386,0 28.9052288,6.4834902 28.9052288,14.4526144 C28.9052288,22.4217386 22.4217386,28.9052288 14.4526144,28.9052288" id="Fill-1" fill="#28C66F"></path>
                        <path d="M20.6711431,23.2246974 C20.1222281,23.2246974 19.6771824,22.7796516 19.6771824,22.2305471 C19.6771824,21.681632 20.1222281,21.2365863 20.6711431,21.2365863 C21.2200582,21.2365863 21.6652935,21.681632 21.6652935,22.2305471 C21.6652935,22.7796516 21.2200582,23.2246974 20.6711431,23.2246974 M9.86892745,8.31547516 C9.31982288,8.31547516 8.87477712,7.87042941 8.87477712,7.32151438 C8.87477712,6.7724098 9.31982288,6.32755359 9.86892745,6.32755359 C10.4178425,6.32755359 10.8628882,6.7724098 10.8628882,7.32151438 C10.8628882,7.87042941 10.4178425,8.31547516 9.86892745,8.31547516 M10.8628882,22.2305471 C10.8628882,22.7796516 10.4178425,23.2246974 9.86892745,23.2246974 C9.31982288,23.2246974 8.87477712,22.7796516 8.87477712,22.2305471 C8.87477712,21.681632 9.31982288,21.2365863 9.86892745,21.2365863 C10.4178425,21.2365863 10.8628882,21.681632 10.8628882,22.2305471 M20.1436464,6.49605686 C20.5994961,6.19013529 21.2168359,6.31182157 21.5229471,6.7674817 C21.8288686,7.22333137 21.7073719,7.84086078 21.2515222,8.14678235 C20.7956725,8.45270392 20.1781431,8.33120719 19.8722216,7.87554706 C19.5663,7.41969739 19.6877967,6.80197843 20.1436464,6.49605686 M20.6711431,20.7962791 C20.5790255,20.7962791 20.4891824,20.8059458 20.4018033,20.8224359 L14.5500582,14.0279065 L19.8847314,8.52018105 C20.1104765,8.66878235 20.3805745,8.75578235 20.6711431,8.75578235 C21.4632412,8.75578235 22.1054111,8.11361242 22.1054111,7.32151438 C22.1054111,6.5292268 21.4632412,5.88724641 20.6711431,5.88724641 C19.8790451,5.88724641 19.2368752,6.5292268 19.2368752,7.32151438 C19.2368752,7.45760588 19.2571562,7.58876928 19.2926007,7.71348824 L10.3249667,16.947998 L10.3249667,8.68053399 C10.893215,8.48966471 11.3031954,7.95401765 11.3031954,7.32151438 C11.3031954,6.5292268 10.6610255,5.88724641 9.86892745,5.88724641 C9.07682941,5.88724641 8.43446993,6.5292268 8.43446993,7.32151438 C8.43446993,7.87061895 8.74342418,8.3473183 9.1968098,8.5882268 L9.1968098,20.9638346 C8.74342418,21.2049327 8.43446993,21.6814425 8.43446993,22.2305471 C8.43446993,23.0228346 9.07682941,23.664815 9.86892745,23.664815 C10.6610255,23.664815 11.3031954,23.0228346 11.3031954,22.2305471 C11.3031954,21.5980438 10.893215,21.0623967 10.3249667,20.871717 L10.3249667,18.4078542 L13.7977641,14.8465405 L19.5090582,21.3923902 C19.3384699,21.6283706 19.2368752,21.9174229 19.2368752,22.2305471 C19.2368752,23.0228346 19.8790451,23.664815 20.6711431,23.664815 C21.4632412,23.664815 22.1054111,23.0228346 22.1054111,22.2305471 C22.1054111,21.438449 21.4632412,20.7962791 20.6711431,20.7962791" id="Fill-3" fill="#28C66F"></path>
                    </g>
                </g>
                <text id="KLIERFELD-LATAM" font-family="Montserrat-Regular, Montserrat" font-size="19" font-weight="normal" fill="#FFFFFF">
                    <tspan x="39" y="21">KLIERFELD </tspan>
                    <tspan x="152.487" y="21" letter-spacing="0.038">L</tspan>
                    <tspan x="163.754" y="21" letter-spacing="-0.665">AT</tspan>
                    <tspan x="185.623" y="21">AM</tspan>
                </text>
            </g>
        </g>
    </g>
</svg>