<?xml version="1.0" encoding="UTF-8"?>
<svg width="30px" height="30px" viewBox="0 0 24 24" version="1.1" xmlns="http://www.w3.org/2000/svg" xmlns:xlink="http://www.w3.org/1999/xlink">
    <title>2834F090-4461-4828-A444-E6D39AEDA55A</title>
    <defs>
        <polygon id="path-1" points="0 0 24 0 24 24 0 24"></polygon>
    </defs>
    <g id="web" stroke="none" stroke-width="1" fill="none" fill-rule="evenodd">
        <g id="home-v4" transform="translate(-287.000000, -4526.000000)">
            <g id="Group-4" transform="translate(219.000000, 4526.000000)">
                <g id="twitter-" transform="translate(68.000000, 0.000000)">
                    <mask id="mask-2" fill="white">
                        <use xlink:href="#path-1"></use>
                    </mask>
                    <g id="Clip-2"></g>
                    <path d="M18.911582,24 L5.08844917,24 C2.27817484,24 0,21.7218252 0,18.911582 L0,5.08844917 C0,2.27817484 2.27817484,0 5.08844917,0 L18.911582,0 C21.7218252,0 24,2.27817484 24,5.08844917 L24,18.911582 C24,21.7218252 21.7218252,24 18.911582,24" id="Fill-1" fill="#FFFFFF" mask="url(#mask-2)"></path>
                    <path d="M16.8733067,10.242024 C17.0169574,13.4375452 14.6499367,17 10.4594094,17 C9.23277351,17.0014539 8.03170925,16.6470009 7,15.9790691 C8.19364279,16.1228083 9.39517775,15.7839768 10.3409512,15.0369246 C9.37555058,15.018815 8.5284557,14.3846589 8.23335932,13.4591293 C8.57134815,13.5243388 8.91966133,13.5110511 9.25177858,13.4202779 C8.18852091,13.2034357 7.42856909,12.2562492 7.44167235,11.1642033 C7.75466627,11.3400275 8.10504884,11.4375557 8.46330767,11.4485734 C7.47288616,10.7806972 7.16793568,9.45330322 7.76649449,8.41547233 C8.91232407,9.83491439 10.6028764,10.6979168 12.4174544,10.7897197 C12.1850832,9.78796916 12.6500534,8.75399316 13.551098,8.26878324 C14.4521427,7.78357332 15.5645784,7.96812084 16.2633272,8.71872847 C16.7689007,8.61845978 17.253791,8.43214567 17.6971543,8.16779515 C17.528526,8.69413574 17.1757648,9.14091812 16.7044635,9.42506708 C17.1515364,9.37111925 17.5881562,9.25054887 18,9.06731116 C17.6968771,9.52326651 17.3153264,9.9210789 16.8733067,10.242024 L16.8733067,10.242024 Z" id="Path" fill="#04242F" fill-rule="nonzero" mask="url(#mask-2)"></path>
                </g>
            </g>
        </g>
    </g>
</svg>