<?xml version="1.0" encoding="UTF-8"?>
<svg width="30px" height="30px" viewBox="0 0 24 24" version="1.1" xmlns="http://www.w3.org/2000/svg" xmlns:xlink="http://www.w3.org/1999/xlink">
    <title>C4A1B504-2E83-464E-AAB7-9D030427A976</title>
    <g id="web" stroke="none" stroke-width="1" fill="none" fill-rule="evenodd">
        <g id="home-v4" transform="translate(-253.000000, -4526.000000)">
            <g id="Group-4" transform="translate(219.000000, 4526.000000)">
                <g id="Play-button" transform="translate(34.000000, 0.000000)">
                    <path d="M18.9115754,24 L5.08842458,24 C2.27814659,24 0,21.7218252 0,18.911582 L0,5.08841796 C0,2.27817484 2.27814659,0 5.08842458,0 L18.9115754,0 C21.7218222,0 24,2.27817484 24,5.08841796 L24,18.911582 C24,21.7218252 21.7218222,24 18.9115754,24" id="Fill-1" fill="#FFFFFF"></path>
                    <path d="M8.43243243,9.02050731 L8.43243243,15.3039876 C8.43243243,16.2648592 9.49139422,16.85781 10.3214927,16.3609464 L15.6144257,13.1928597 C16.4201371,12.7105642 16.4160726,11.5500793 15.6066093,11.0739829 L10.3136763,7.95858922 C9.48263989,7.47009449 8.43243243,8.06335522 8.43243243,9.02050731 Z" id="Path" fill="#04242F" fill-rule="nonzero"></path>
                </g>
            </g>
        </g>
    </g>
</svg>